<?xml version="1.0" standalone="no"?>
<!DOCTYPE svg PUBLIC "-//W3C//DTD SVG 20010904//EN"
 "http://www.w3.org/TR/2001/REC-SVG-20010904/DTD/svg10.dtd">
<svg version="1.0" xmlns="http://www.w3.org/2000/svg"
 width="512.000000pt" height="512.000000pt" viewBox="0 0 512.000000 512.000000"
 preserveAspectRatio="xMidYMid meet">

<g transform="translate(0.000000,512.000000) scale(0.100000,-0.100000)"
fill="#000000" stroke="none">
<path d="M0 2560 l0 -2560 2560 0 2560 0 0 2560 0 2560 -2560 0 -2560 0 0
-2560z m1810 1345 l0 -145 -222 -2 -223 -3 -3 -222 -2 -223 -145 0 -145 0 0
273 c0 164 4 287 11 311 14 50 83 123 134 141 31 11 105 14 318 15 l277 0 0
-145z m2085 134 c25 -7 58 -29 86 -58 29 -28 51 -61 58 -86 7 -25 11 -144 11
-312 l0 -273 -145 0 -145 0 -2 223 -3 222 -222 3 -223 2 0 145 0 145 273 0
c168 0 287 -4 312 -11z m-990 -481 c657 -380 642 -370 676 -443 17 -37 19 -75
19 -568 0 -427 -3 -534 -14 -560 -21 -48 -80 -99 -191 -162 -55 -32 -140 -81
-190 -110 -607 -353 -590 -345 -645 -345 -49 0 -79 16 -390 197 -151 88 -336
195 -410 238 -144 83 -204 131 -226 182 -11 26 -14 133 -14 560 0 493 2 531
19 568 34 73 14 59 640 422 157 91 294 169 305 174 12 5 50 8 86 6 64 -3 69
-5 335 -159z m-1543 -1970 l3 -223 223 -3 222 -2 0 -145 0 -145 -272 0 c-169
0 -288 4 -313 11 -53 15 -129 91 -144 144 -7 25 -11 144 -11 313 l0 272 145 0
145 0 2 -222z m2688 -50 c0 -169 -4 -288 -11 -313 -15 -53 -91 -129 -144 -144
-25 -7 -144 -11 -312 -11 l-273 0 0 145 0 145 223 2 222 3 3 223 2 222 145 0
145 0 0 -272z"/>
<path d="M2370 3304 c-96 -57 -226 -134 -287 -170 -62 -37 -113 -68 -113 -69
0 -3 156 -95 433 -254 l157 -90 158 90 c269 155 432 251 432 253 0 2 -46 30
-102 64 -340 201 -482 282 -492 281 -6 -1 -90 -48 -186 -105z"/>
<path d="M1812 2459 l3 -342 235 -135 c129 -73 263 -149 298 -169 l62 -35 0
344 0 343 -290 165 c-160 91 -295 167 -300 168 -7 3 -9 -119 -8 -339z"/>
<path d="M3003 2632 l-293 -167 0 -343 0 -344 63 35 c34 20 168 96 297 169
l235 135 3 341 c1 188 -1 342 -5 341 -5 0 -140 -75 -300 -167z"/>
</g>
</svg>
