<?xml version="1.0" standalone="no"?>
<!DOCTYPE svg PUBLIC "-//W3C//DTD SVG 20010904//EN"
 "http://www.w3.org/TR/2001/REC-SVG-20010904/DTD/svg10.dtd">
<svg version="1.0" xmlns="http://www.w3.org/2000/svg"
 width="512.000000pt" height="512.000000pt" viewBox="0 0 512.000000 512.000000"
 preserveAspectRatio="xMidYMid meet">

<g transform="translate(0.000000,512.000000) scale(0.100000,-0.100000)"
fill="#000000" stroke="none">
<path d="M0 2560 l0 -2560 2560 0 2560 0 0 2560 0 2560 -2560 0 -2560 0 0
-2560z m3158 1193 l-3 -148 -897 -3 -898 -2 0 -1040 0 -1040 1050 0 1050 0 0
370 0 371 148 -3 147 -3 0 -395 c0 -365 -1 -399 -19 -445 -23 -58 -94 -138
-151 -168 l-40 -22 -1125 -3 -1124 -2 -52 25 c-58 28 -111 82 -146 147 l-23
43 -3 1103 c-1 735 1 1116 8 1142 13 50 66 126 111 163 74 58 33 56 1042 57
l928 0 -3 -147z m600 -220 l2 -223 220 0 220 0 0 -150 0 -150 -220 0 -220 0 0
-225 0 -225 -150 0 -150 0 0 225 0 225 -225 0 -225 0 0 150 0 150 225 0 225 0
0 225 0 226 148 -3 147 -3 3 -222z m-1198 -968 l0 -745 -150 0 -150 0 0 745 0
745 150 0 150 0 0 -745z m-600 -225 l0 -520 -150 0 -150 0 0 520 0 520 150 0
150 0 0 -520z m1198 -222 l-3 -293 -147 -3 -148 -3 0 296 0 295 150 0 150 0
-2 -292z"/>
</g>
</svg>
