<?xml version="1.0" standalone="no"?>
<!DOCTYPE svg PUBLIC "-//W3C//DTD SVG 20010904//EN"
 "http://www.w3.org/TR/2001/REC-SVG-20010904/DTD/svg10.dtd">
<svg version="1.0" xmlns="http://www.w3.org/2000/svg"
 width="512.000000pt" height="512.000000pt" viewBox="0 0 512.000000 512.000000"
 preserveAspectRatio="xMidYMid meet">

<g transform="translate(0.000000,512.000000) scale(0.100000,-0.100000)"
fill="#000000" stroke="none">
<path d="M0 2560 l0 -2560 2560 0 2560 0 0 2560 0 2560 -2560 0 -2560 0 0
-2560z m3556 1319 c33 -16 73 -58 173 -182 72 -88 138 -177 148 -196 17 -34
18 -101 21 -1035 3 -1147 9 -1061 -87 -1157 -97 -96 3 -89 -1251 -89 -1254 0
-1154 -7 -1251 89 -96 96 -90 10 -87 1157 3 934 4 1001 21 1035 10 19 76 108
148 196 98 122 140 166 172 182 42 21 48 21 996 21 945 0 955 0 997 -21z"/>
<path d="M1600 3688 c-33 -40 -60 -76 -60 -80 0 -5 459 -8 1020 -8 561 0 1020
3 1020 6 0 3 -30 39 -66 80 l-66 74 -894 0 -894 0 -60 -72z"/>
<path d="M2260 2710 l0 -150 -257 0 -258 0 408 -407 407 -408 407 408 408 407
-258 0 -257 0 0 150 0 150 -300 0 -300 0 0 -150z"/>
</g>
</svg>
