<?xml version="1.0" standalone="no"?>
<!DOCTYPE svg PUBLIC "-//W3C//DTD SVG 20010904//EN"
 "http://www.w3.org/TR/2001/REC-SVG-20010904/DTD/svg10.dtd">
<svg version="1.0" xmlns="http://www.w3.org/2000/svg"
 width="512.000000pt" height="512.000000pt" viewBox="0 0 512.000000 512.000000"
 preserveAspectRatio="xMidYMid meet">

<g transform="translate(0.000000,512.000000) scale(0.100000,-0.100000)"
fill="#000000" stroke="none">
<path d="M0 2560 l0 -2560 2560 0 2560 0 0 2560 0 2560 -2560 0 -2560 0 0
-2560z m1960 900 l0 -300 -300 0 -300 0 0 293 c0 162 3 297 7 300 3 4 138 7
300 7 l293 0 0 -300z m900 0 l0 -300 -300 0 -300 0 0 300 0 300 300 0 300 0 0
-300z m898 -2 l2 -298 -300 0 -300 0 0 300 0 300 298 -2 297 -3 3 -297z
m-1798 -898 l0 -300 -300 0 -300 0 0 300 0 300 300 0 300 0 0 -300z m900 118
l0 -183 -117 -117 -118 -118 -182 0 -183 0 0 300 0 300 300 0 300 0 0 -182z
m932 75 c80 -79 108 -114 108 -133 0 -17 -21 -46 -72 -97 l-71 -72 -133 127
-133 127 77 78 c45 45 85 77 97 77 12 0 62 -42 127 -107z m-289 -225 c50 -51
107 -110 126 -131 l35 -38 -500 -500 -499 -499 -125 2 -125 3 -3 130 -3 129
498 498 c274 274 499 498 501 498 1 0 44 -42 95 -92z m-1543 -868 l0 -300
-297 2 -298 3 -3 298 -2 297 300 0 300 0 0 -300z"/>
</g>
</svg>
