<svg width="44" height="44" fill="none" xmlns="http://www.w3.org/2000/svg"><rect width="44" height="44" rx="5" fill="#18342E"/><path d="m20.1.701-.23.002c-1.594.03-2.992.692-4.113 1.857a6.193 6.193 0 0 0-1.443 2.752l-.043.18c-.113.534-.097 1.07-.086 1.613l-.132-.009c-1.39-.053-2.642.595-3.67 1.51-1.022.995-1.7 2.427-1.754 3.882-.03 1.701.459 3.146 1.595 4.415.281.289.61.524.932.761l.258.2-.097.1-.908.931-.467.48-.536.55-.17.174-.156.162-.138.142c-.168.185-.178.3-.178.546v.387l-.002.421c-.002.222-.003.444-.002.665 0 .214-.001.427-.003.64l.002.201c.003.333.003.333-.137.62-.116.1-.116.1-.302.223-.171.317-.231.567-.193.93.114.31.274.511.516.73.374.128.768.134 1.123-.046.313-.29.466-.49.494-.928a1.297 1.297 0 0 0-.2-.687l-.19-.14c-.326-.277-.321-.668-.361-1.078a21.55 21.55 0 0 1-.02-.363l-.01-.184c-.024-.988.277-1.6.922-2.32.175-.185.353-.364.534-.542l.18-.179c.174-.168.35-.332.529-.494l.164-.15c.307-.27.307-.27.698-.326l.197.066.16.035.278.07c.142.027.142.027.464.027v7.305l-.322.133c-.114.108-.114.108-.21.228a50.2 50.2 0 0 1-.097.12c-.22.321-.184.74-.144 1.113.137.377.364.608.709.797.36.143.75.089 1.1-.06.287-.17.456-.427.604-.725.067-.392.04-.74-.137-1.095a3.159 3.159 0 0 0-.536-.511h-.129v-7.238h1.29v1.195l.261.01c.635.049.635.049 1.153.393.242.38.41.804.455 1.257-.079.324-.224.5-.452.73a5.14 5.14 0 0 0-.157.246l-.1.153c.102.26.275.433.465.626l.1.101.313.319a430.469 430.469 0 0 1 .733.747l.34-.222.193-.125c.135-.09.264-.184.393-.284.214-.125.258-.095.492-.033l.123.027c.351.083.702.184.973.438.22.427.27.92.322 1.394h.773c0 .68 0 1.36-.005 2.039-.002.315-.003.63-.003.946.001.305 0 .609-.003.913v.349c0 .163-.001.325-.003.488l.002.146c0 .152 0 .152-.052.366-.182.159-.182.159-.387.265-.307.342-.419.645-.407 1.107.047.362.21.643.476.881.36.26.73.244 1.156.203.375-.126.602-.399.79-.746.113-.431.085-.802-.128-1.193a1.591 1.591 0 0 0-.598-.517l-.064-5.247h.773l.028-.286c.076-.678.076-.678.426-1.227.339-.208.82-.454 1.225-.392.137.05.242.113.363.198l.13.09.132.094.137.095.33.233c.387-.33.74-.687 1.092-1.054a677.041 677.041 0 0 0 .584-.606 1.266 1.266 0 0 0-.286-.507c-.276-.307-.276-.307-.423-.688.064-.474.3-.91.516-1.328l.064-.133c.13-.043.13-.043.287-.07l.174-.033.184-.034.359-.069.16-.03c.126-.03.126-.03.19-.096.005-.19.006-.379.004-.569l-.004-.56h1.225v7.238l-.323.133c-.26.235-.455.508-.515.863-.005.424.047.732.322 1.063.283.276.543.383.93.419.4-.036.717-.2 1.004-.486.255-.363.234-.765.193-1.195-.11-.36-.347-.588-.645-.797h-.128v-7.238c1.452-.106 1.452-.106 2.45.574l.128.134.147.154.147.159.154.158c.678.712 1.059 1.349 1.084 2.36a11.48 11.48 0 0 1-.06 1.082l-.016.157c-.04.269-.092.418-.299.594l-.19.14a1.24 1.24 0 0 0-.186.809c.092.41.242.607.572.85.253.131.561.09.838.067.297-.12.457-.34.645-.598.104-.323.09-.58-.008-.904-.121-.224-.121-.224-.32-.361-.133-.111-.182-.169-.221-.342a6.428 6.428 0 0 1-.003-.55l.001-.416.01-.653c.004-.211.005-.422.005-.633l.006-.195c0-.343-.032-.547-.253-.811a9.872 9.872 0 0 0-.249-.248l-.21-.223-.212-.216-.115-.118a246.083 246.083 0 0 0-.832-.85l-.11-.111c-.186-.186-.186-.186-.325-.408l.143-.054c.903-.394 1.554-1.17 1.947-2.079.441-1.153.402-2.336-.056-3.476-.5-1.037-1.295-1.728-2.334-2.156-.407-.133-.826-.202-1.247-.27l.03-.17c.176-1.197-.126-2.354-.82-3.329-.708-.879-1.56-1.395-2.662-1.531-1.017-.073-1.947.223-2.8.78-.066.065-.13.132-.194.2l-.056-.258C25.52 4.08 24.72 2.596 23.2 1.585c-.962-.588-1.98-.894-3.102-.884Z" fill="#5BADFE"/><path d="M23.66 11.555h-2.32l-.129.618-.04.194a64.664 64.664 0 0 0-.065.311c-.024.138-.024.138-.024.338a5.38 5.38 0 0 0-1.089.414.748.748 0 0 1-.458.05 4.44 4.44 0 0 1-.503-.332l-.136-.095-.328-.237c-.249.106-.405.27-.593.466l-.094.098-.296.308-.2.21c-.165.17-.329.34-.492.512.188.363.377.686.642.995.1.202.06.315.002.533a9.03 9.03 0 0 1-.23.547c-.221.499-.221.499-.221.648l-.116.007-.162.014-.156.011c-.312.05-.615.148-.92.233v2.391l.609.046c.317.047.581.11.806.357.242.38.41.804.455 1.257-.079.324-.224.5-.452.73a5.14 5.14 0 0 0-.157.246l-.1.153c.102.26.275.433.465.626l.1.101.313.319.212.217.52.53.342-.222.192-.125c.135-.09.264-.184.393-.284.214-.125.258-.095.492-.033l.123.027c.351.083.702.184.973.438.22.427.27.92.322 1.394h.773c0 .68 0 1.36-.005 2.039-.002.315-.003.63-.002.946 0 .305-.002.609-.004.913v.349c0 .163-.001.325-.003.488l.002.146c0 .152 0 .152-.052.366-.182.159-.182.159-.387.265-.306.342-.419.645-.407 1.107.047.362.21.643.476.881.36.26.73.244 1.156.203.376-.126.602-.399.79-.746.113-.431.085-.802-.128-1.193a1.59 1.59 0 0 0-.598-.517l-.064-5.247h.773l.028-.286c.076-.678.076-.678.426-1.227.339-.208.82-.454 1.225-.392.137.05.242.113.363.198l.13.09.132.094a144.685 144.685 0 0 0 .468.328c.386-.33.739-.687 1.091-1.054l.171-.177.413-.43a1.265 1.265 0 0 0-.286-.506c-.276-.307-.276-.307-.423-.688.064-.474.3-.91.516-1.328l.064-.133c.13-.043.13-.043.287-.07l.174-.033.184-.034a113.055 113.055 0 0 0 .52-.1c.125-.029.125-.029.19-.095a10.566 10.566 0 0 0 .007-.645 29.804 29.804 0 0 0-.072-1.68l-.117-.009c-.749-.062-.749-.062-1.353-.464-.201-.369-.442-.892-.38-1.325.092-.262.273-.489.428-.716.198-.304.198-.304.192-.466-.087-.206-.221-.33-.376-.486l-.095-.097c-.1-.102-.2-.204-.302-.305l-.204-.207c-.166-.17-.333-.338-.5-.507-.34.133-.598.334-.888.56-.264.133-.448.105-.724.038l-.133-.027c-.33-.078-.658-.185-.898-.438-.2-.441-.211-.913-.258-1.394Z" fill="#FC9F2F"/><path d="m20.1.701-.23.002c-1.594.03-2.992.692-4.113 1.857a6.193 6.193 0 0 0-1.443 2.752l-.043.18c-.113.534-.097 1.07-.086 1.613h.065l.015-.116c.216-1.546.728-2.897 1.983-3.868.98-.662 1.973-1.002 3.142-1.046l.217-.011.21-.009.187-.007c.191.012.324.063.498.143.114.027.228.051.342.075 1.404.355 2.522 1.334 3.26 2.585.391.702.683 1.53.757 2.337.024.25.024.25.153.382l.076-.102c.492-.625 1.15-.981 1.922-1.093.959-.074 1.742.166 2.509.76.512.465.811 1.21.907 1.896.013.223.012.445.008.668a562.467 562.467 0 0 0-.008.594l.19.013c.969.083 1.805.415 2.517 1.116.044.042.09.085.135.13.8.835 1.052 1.89 1.048 3.025-.017 1.106-.412 1.996-1.154 2.805a4.27 4.27 0 0 1-.867.614l-.166.095c-.532.277-.947.315-1.574.436v7.305l-.323.133c-.26.235-.455.508-.515.863-.005.424.047.732.322 1.063.283.276.543.383.93.419.4-.036.717-.2 1.004-.486.255-.363.234-.765.193-1.195-.11-.36-.347-.588-.645-.797h-.128v-7.238c1.452-.106 1.452-.106 2.45.574l.128.134.147.154.147.159.154.158c.678.712 1.059 1.349 1.084 2.36a11.48 11.48 0 0 1-.06 1.082l-.016.157c-.04.269-.092.418-.299.594l-.19.14a1.24 1.24 0 0 0-.186.809c.092.41.242.607.572.85.253.131.561.09.838.067.297-.12.457-.34.645-.598.104-.323.09-.58-.008-.904-.121-.224-.121-.224-.32-.361-.133-.111-.182-.169-.221-.342a6.428 6.428 0 0 1-.003-.55l.001-.416.01-.653c.004-.211.005-.422.005-.633l.006-.195c0-.343-.032-.547-.253-.811a9.872 9.872 0 0 0-.249-.248l-.21-.223-.212-.216-.115-.118a246.083 246.083 0 0 0-.832-.85l-.11-.111c-.186-.186-.186-.186-.325-.408l.143-.054c.903-.394 1.554-1.17 1.947-2.079.441-1.153.402-2.336-.056-3.476-.5-1.037-1.295-1.728-2.334-2.156-.407-.133-.826-.202-1.247-.27l.03-.17c.176-1.197-.126-2.354-.82-3.329-.708-.879-1.56-1.395-2.662-1.531-1.017-.073-1.947.223-2.8.78-.066.065-.13.132-.194.2l-.056-.258C25.52 4.08 24.72 2.596 23.2 1.585c-.962-.588-1.98-.894-3.102-.884Z" fill="#2A93FC"/><path d="M20.566 15.473c-.086.065-.172.131-.257.199l-.198.145c-.704.631-1.105 1.573-1.17 2.517-.027.976.25 1.87.88 2.609.097.103.195.206.294.307l.108.116c.693.683 1.633.84 2.55.838.748-.02 1.318-.309 1.918-.755l.13-.095c.613-.497 1.034-1.312 1.201-2.09.128-1.146-.057-2.107-.75-3.034a3.75 3.75 0 0 0-1.16-.957l-.18-.102c-1.062-.515-2.396-.334-3.366.302Z" fill="#FEFEFD"/><path d="M14.443 18.527h-.838v7.305l-.322.133c-.114.108-.114.108-.21.228l-.097.12c-.22.321-.184.74-.144 1.113.137.377.364.608.709.797.36.143.75.089 1.1-.06.287-.17.456-.427.604-.725.067-.392.04-.74-.137-1.095a3.159 3.159 0 0 0-.536-.511h-.129v-7.305Zm-2.9-.73a14.87 14.87 0 0 0-.986.941 150.204 150.204 0 0 1-.46.473 282.2 282.2 0 0 1-.476.49l-.301.311-.144.148-.133.137-.117.121c-.157.177-.162.298-.162.53v.388l-.002.421c-.002.222-.003.444-.002.665 0 .214-.001.427-.003.64l.002.201c.003.333.003.333-.137.62-.116.1-.116.1-.302.223-.171.317-.231.567-.193.93.114.31.274.511.516.73.374.128.768.134 1.123-.046.313-.29.466-.49.494-.928a1.297 1.297 0 0 0-.2-.687l-.19-.14c-.325-.277-.323-.665-.364-1.075a21.623 21.623 0 0 1-.031-.546c-.026-.898.206-1.483.789-2.15a21.896 21.896 0 0 1 2.052-1.932c-.094-.195-.231-.221-.423-.307l-.197-.09-.153-.068Z" fill="#2A93FB"/><path d="M22.887 25.566h-.774v.198c0 .613-.001 1.227-.005 1.84-.002.316-.003.632-.002.947 0 .305-.002.609-.004.913v.349c0 .163-.001.325-.003.488l.002.146c0 .152 0 .152-.052.366-.182.159-.182.159-.387.265-.306.342-.419.645-.407 1.107.047.362.21.643.476.881.36.26.73.244 1.156.203.376-.126.602-.399.79-.746.113-.431.085-.802-.128-1.193a1.59 1.59 0 0 0-.598-.517l-.064-5.247Z" fill="#2DD52D"/><path d="M19.47 5.246c-.284.147-.463.329-.644.598-.1.31-.101.564.012.871.169.276.328.485.633.59l.154-.007c.585-.017.912.234 1.326.622l.24.24.123.121c.57.578.854 1.08.883 1.911 0 .457-.028.91-.084 1.363h.774c.323-2.073.323-2.073-.092-2.821-.346-.492-.786-.89-1.237-1.275l-.283-.243-.134-.115c-.195-.176-.303-.278-.377-.539-.003-.193-.003-.193.035-.367.03-.182.003-.254-.084-.414-.354-.483-.674-.6-1.244-.535Z" fill="#BBDEFF"/><path d="m26.56 12.816-.322.133c0 .2 0 .2.113.338l.155.157a206.59 206.59 0 0 0 .957.966 5.618 5.618 0 0 1-.548.897c-.163.25-.163.25-.156.436.043.14.043.14.11.287.087.18.087.18.138.408.08.276.153.468.327.695.405.213.903.265 1.354.265v2.325c-.563.091-.563.091-1.128.164-.3.134-.36.29-.484.593l-.072.193-.08.191c-.185.467-.185.467-.12.69.068.138.137.268.218.397l.078.123.08.126.083.13.2.315c-.273.336-.56.65-.862.958l-.125.128-.302.308.064.2.258.132 1.611-1.66c-.128-.332-.128-.332-.286-.507-.276-.307-.276-.307-.423-.688.064-.474.3-.91.516-1.328l.064-.133c.13-.043.13-.043.287-.07l.174-.033.184-.034a113.055 113.055 0 0 0 .52-.1c.125-.029.125-.029.19-.095a10.566 10.566 0 0 0 .007-.645 29.804 29.804 0 0 0-.072-1.68l-.117-.009c-.749-.062-.749-.062-1.353-.464-.201-.369-.442-.892-.38-1.325.092-.262.273-.489.428-.716.198-.304.198-.304.192-.466-.087-.206-.221-.33-.376-.486l-.095-.097c-.1-.102-.2-.204-.302-.305l-.204-.207c-.166-.17-.333-.338-.5-.507Z" fill="#E4830A"/><path d="M13.283 25.965c-.325.32-.46.573-.475 1.042.004.4.082.655.346.95.365.299.635.364 1.096.332.42-.091.668-.297.902-.664.173-.348.146-.69.065-1.063-.16-.322-.365-.52-.645-.73a1.507 1.507 0 0 0-1.289.133Zm16.951 0c-.26.245-.453.5-.515.863-.005.424.047.732.322 1.063.283.276.543.383.93.419a1.558 1.558 0 0 0 1.004-.486c.255-.363.234-.765.193-1.195-.11-.358-.345-.593-.645-.797a1.5 1.5 0 0 0-1.289.133Z" fill="#2CD52D"/><path d="M19.746 1.965c-1.006.131-1.962.529-2.724 1.222l-.161.145c-.614.588-1.178 1.47-1.286 2.342.029.17.029.17.101.294.18.111.303.106.508.075.182-.2.253-.416.338-.672a3.84 3.84 0 0 1 1.982-2.184c.5-.203 1.01-.368 1.552-.37.124-.028.124-.028.236-.152.1-.175.111-.273.081-.474-.185-.243-.341-.236-.627-.226Z" fill="#BADDFE"/><path d="M22.887 25.566h-.774v5.313h.774v-5.313Z" fill="#2A93FB"/><path d="M8.565 23.832c-.24.189-.35.449-.438.738-.036.35.011.566.193.864.214.247.35.382.676.414.493.013.722-.074 1.085-.427.173-.297.208-.588.147-.93-.08-.257-.197-.496-.412-.661a1.777 1.777 0 0 0-1.251.002Zm26.619-.002c-.254.194-.38.495-.438.807-.009.329.06.601.258.863.342.31.539.352.986.346.32-.026.471-.176.673-.412.215-.294.233-.502.21-.864-.087-.29-.198-.55-.438-.738a1.777 1.777 0 0 0-1.25-.002Z" fill="#2CD62D"/><path d="M19.47 5.246c-.284.147-.463.329-.644.598-.1.31-.101.564.012.871.169.276.328.485.633.59.326.035.572.039.866-.12l.165-.146.113-.095c.214-.276.244-.556.21-.901-.245-.649-.708-.87-1.354-.797Z" fill="#FBFDFF"/><path d="M21.727 14.941c-.742.045-1.389.35-1.934.864l-.136.124c-.65.626-1.01 1.459-1.115 2.363-.026.981.262 1.91.892 2.65.097.104.195.207.294.308l.104.113c.245.247.533.392.84.543l.125.062c.233.11.416.17.672.145-.09-.186-.227-.217-.404-.3-.898-.421-1.474-1.046-1.856-1.994a3.895 3.895 0 0 1 .101-2.78c.553-1.11 1.31-1.616 2.417-2.031v-.067Z" fill="#E7850D"/><path d="M25.207 23.375c-.637.122-1.346.325-1.87.73-.239.375-.26.824-.257 1.262v.2h.58l.023-.285c.073-.69.073-.69.448-1.235.378-.219.787-.358 1.205-.473l-.129-.199Z" fill="#E68207"/><path d="M23.66 11.621h-.58c.011.138.024.277.042.414.026.186.026.186.027.382.024.248.056.388.189.599.326.225.706.35 1.076.477.138.05.269.106.401.168.199.085.199.085.392.085-.016-.127-.016-.127-.064-.266-.116-.057-.116-.057-.265-.095-.61-.161-.61-.161-1.043-.59-.121-.383-.155-.773-.175-1.174Z" fill="#E2840E"/><path d="M20.695 21.781c.146.225.207.256.451.332.182.009.182.009.323 0-.086-.177-.176-.198-.35-.278l-.158-.073c-.137-.047-.137-.047-.266.02Z" fill="#E98F1F"/><g clip-path="url(#Mask group__a)"><path d="M21.79 14.684h1.835c.013.073.02.142.024.216l.002.035.004.076a20.432 20.432 0 0 0 .045.703l.004.042c.003.056.002.113.002.169l-.34.015-.054.105a7.13 7.13 0 0 1-.166.299c-.053.09-.104.182-.152.275-.055.106-.113.21-.173.314a10.308 10.308 0 0 0-.301.562l-.016.03a8.928 8.928 0 0 1-.162.292h.034c.214-.001.428 0 .642.007.295.01.589.014.883.018l.287.006h.301c.04 0 .072.003.11.016a.442.442 0 0 1 .082.124l.036.057.053.086c.03.047.059.093.091.138.074.106.115.205.09.333-.04.139-.122.267-.194.393a10.79 10.79 0 0 0-.472.878 3.49 3.49 0 0 1-.149.268c-.063.105-.116.214-.17.324a2.78 2.78 0 0 1-.13.24c-.056.09-.106.181-.155.274l-.022.041-.02.04-.02.035c-.027.106.013.22.041.324l.01.04.022.082.033.123c.03.118.063.235.098.352.026.084.046.168.062.254-.584.024-1.17.035-1.754.03l-.012-.06-.046-.229-.02-.101a36.392 36.392 0 0 0-.128-.62l-.009-.041-.007-.034c-.005-.031-.005-.031-.005-.093h.357l.033-.093.055-.1c.06-.103.113-.208.165-.314.054-.11.11-.215.175-.318.051-.084.095-.172.14-.26l.082-.156.097-.187.017-.032.044-.085c.053-.102.11-.201.166-.301l-.222-.005-.21-.005a18.15 18.15 0 0 0-.665-.003l-.335.003-.24.003a8.834 8.834 0 0 1-.317.004c-.178.007-.178.007-.251-.028a.603.603 0 0 1-.133-.218.991.991 0 0 0-.073-.131l-.027-.046-.026-.045-.028-.047-.026-.044-.024-.04a1.536 1.536 0 0 0-.053-.08c-.017-.108.032-.18.084-.27l.054-.096.028-.05c.047-.083.093-.167.138-.251.01-.016.018-.033.027-.05.053-.097.105-.194.156-.292.07-.136.145-.27.218-.404l.195-.355.084-.155.058-.106.028-.05.026-.048.022-.042c.02-.036.02-.036.035-.081h.032l.005-.032a.728.728 0 0 1 .071-.164l.018-.033c.041-.078.085-.154.133-.228.037-.087.014-.17-.01-.257a6.38 6.38 0 0 1-.079-.318 8.16 8.16 0 0 0-.114-.458.579.579 0 0 1-.024-.17Z" fill="#F18815"/><path d="M21.79 14.684h1.835c.013.073.02.142.024.216l.002.035.004.076a20.432 20.432 0 0 0 .045.703l.004.042c.003.056.002.113.002.169l-.34.015-.054.105c-.053.101-.109.2-.166.299a5.96 5.96 0 0 0-.152.275 7.79 7.79 0 0 1-.173.314c-.081.143-.16.288-.235.434a7.09 7.09 0 0 1-.26.466h-.52a.544.544 0 0 1 .06-.144l.028-.049.03-.052.031-.055c.082-.145.167-.288.252-.43.06-.1.118-.201.176-.302.075-.13.15-.259.227-.387a55.3 55.3 0 0 0 .258-.44l.205-.352.27-.461.233-.4h-.941l-.033.093a1.25 1.25 0 0 1-.047.093l-.019.035a4.534 4.534 0 0 1-.06.11 20.944 20.944 0 0 0-.1.188l-.019.035c-.043.08-.043.08-.08.098a98.265 98.265 0 0 1-.11-.49l-.008-.035a7.809 7.809 0 0 1-.006-.031c-.007-.042-.005-.084-.005-.127h-.309l.024.096a132.602 132.602 0 0 1 .186.732.84.84 0 0 1 .034.258h-.033l-.012-.056a8.804 8.804 0 0 0-.1-.417l-.081-.321-.012-.048-.011-.046a4.79 4.79 0 0 0-.03-.111c-.014-.056-.014-.056-.014-.133Z" fill="#0F4683"/><path d="M23.252 19.245a59.27 59.27 0 0 1 .242-.002h.101c.049.002.095.009.144.017a1.721 1.721 0 0 1-.072.155l-.024.046-.026.05-.028.053-.075.143-.08.151-.15.287-.169.323a1225.414 1225.414 0 0 1-.497.948l-.055.106-.026.05-.357.682h.812l.032-.093a2.41 2.41 0 0 1 .045-.088l.026-.05.028-.053.028-.054c.075-.142.152-.282.23-.422h.033l.047.23.016.077c.028.14.057.281.083.422l.276.016-.027-.091a21.871 21.871 0 0 1-.265-.964l.049-.016.015.058c.032.128.066.255.103.38.041.138.078.277.114.416l.01.035.024.097.015.057a.18.18 0 0 1 .011.059c-.584.024-1.17.035-1.754.03l-.012-.06-.046-.229-.02-.101a36.392 36.392 0 0 0-.144-.695c-.005-.031-.005-.031-.005-.093h.357l.033-.093.055-.1c.06-.103.113-.208.165-.314a3.33 3.33 0 0 1 .175-.318c.051-.084.095-.172.14-.26l.082-.156.097-.186c.078-.151.16-.301.244-.45Z" fill="#0D4584"/><path d="M21.79 14.684h1.835c.013.073.02.142.024.216l.002.035.004.076a20.432 20.432 0 0 0 .045.703l.004.042c.003.056.002.113.002.169h-.34v-.031h.292v-.202h-.163c.03-.087.03-.087.05-.122a.239.239 0 0 0 .02-.111l.001-.048.001-.05v-.046a1292.294 1292.294 0 0 1 .009-.554h-.941l-.033.093a1.25 1.25 0 0 1-.047.093l-.019.035a4.534 4.534 0 0 1-.06.11 20.944 20.944 0 0 0-.1.188l-.019.035c-.043.08-.043.08-.08.098a98.265 98.265 0 0 1-.11-.49l-.008-.035a7.809 7.809 0 0 1-.006-.031c-.007-.042-.005-.084-.005-.127h-.309l.024.096a132.602 132.602 0 0 1 .186.732.84.84 0 0 1 .034.258h-.033l-.012-.056a8.804 8.804 0 0 0-.1-.417l-.081-.321-.012-.048-.011-.046a4.79 4.79 0 0 0-.03-.111c-.014-.056-.014-.056-.014-.133Zm1.77 6.484h.033a27.564 27.564 0 0 0 .118.439c.041.137.078.276.114.416l.01.034.024.097.015.057c.01.043.01.043.01.059-.583.024-1.169.036-1.753.03a30.907 30.907 0 0 1-.041-.19l-.012-.055-.012-.053-.01-.048c-.006-.041-.006-.041.01-.088l.04.133.011.038.011.037.01.034c.012.048.018.097.026.146h.828l.032-.093a2.682 2.682 0 0 1 .07-.138l.029-.053.028-.054c.075-.142.152-.282.23-.422h.033l.047.23.016.077c.028.14.057.281.083.422l.276.016-.027-.091a22.227 22.227 0 0 1-.26-.938l-.005-.026.016-.016Z" fill="#040403"/><path d="M21.839 14.73h.309l.055.26.019.088c.01.042.018.084.027.127l.009.039c.021.103.04.195-.016.29l-.022.04-.024.04-.023.04-.058.1c-.061-.042-.068-.105-.082-.172l-.01-.038a16.523 16.523 0 0 1-.047-.204 15.155 15.155 0 0 0-.115-.474.532.532 0 0 1-.022-.136Z" fill="#F0EEED"/><path d="M23.528 21.215h.032a18.53 18.53 0 0 1 .2.707c.02.075.043.15.068.225a.25.25 0 0 1 .008.092h-.276a1.194 1.194 0 0 1-.052-.193l-.01-.056-.01-.059a6.697 6.697 0 0 0-.074-.36c-.022-.137.046-.24.114-.356Z" fill="#F7F7F7"/><path d="M21.936 21.168h.293a.377.377 0 0 1-.065.155l-.017.062h-.162a.826.826 0 0 1-.049-.217Z" fill="#F3F4F5"/><path d="M23.479 15.692h.179v.186h-.276c.028-.068.058-.123.097-.186Z" fill="#EEEEEF"/><path d="M21.839 14.777c.03.052.044.102.057.16l.014.059.014.063.03.13.008.034c.028.12.06.241.092.362.02.08.033.15.029.231h-.033l-.012-.056a10.817 10.817 0 0 0-.172-.69l-.013-.05a.448.448 0 0 1-.014-.243Z" fill="#0B0B0B"/><path d="M21.904 21.122h.34v.03h-.308l.05.218.129.015a1.187 1.187 0 0 1-.097.218c-.041-.04-.043-.064-.054-.117l-.01-.052-.012-.054-.01-.054c-.028-.134-.028-.134-.028-.204Z" fill="#050708"/><path d="M23.56 21.168h.033l.015.058c.034.134.07.268.108.4l.01.036.046.148c.023.076.04.132.016.212a.314.314 0 0 1-.054-.118l-.012-.044-.012-.047-.013-.048-.04-.154-.028-.103a77.772 77.772 0 0 1-.069-.262l-.01-.035a1.707 1.707 0 0 0-.006-.027l.016-.016Z" fill="#171717"/><path d="M21.839 14.777c.026.045.04.087.053.137l.011.043.011.045.011.044a.71.71 0 0 1 .028.18l-.05-.015c-.012-.03-.012-.03-.022-.069l-.011-.043-.01-.045c-.005-.014-.008-.029-.012-.044a.454.454 0 0 1-.009-.233Z" fill="#131212"/><path d="M21.904 21.122h.34v.03h-.308v.11h-.016l-.016-.14Z" fill="#000"/><path d="M23.56 21.168h.033l.032.122.01.034c.012.048.023.09.023.139h-.033a15.697 15.697 0 0 1-.053-.156c-.03-.087-.03-.087-.012-.139Z" fill="#090909"/><path d="M22.018 15.49h.016a11.617 11.617 0 0 1 .038.16c.01.056.012.109.01.166h-.032a8.9 8.9 0 0 1-.04-.159.436.436 0 0 1 .008-.167Z" fill="#161514"/><path d="M23.56 21.168h.033c.01.053.01.053.016.109l-.033.03-.017-.06-.01-.035-.005-.028.016-.016Z" fill="#13100C"/><path d="m23.706 21.696.033.015c.006.036.012.073.016.109h-.032c-.022-.042-.018-.078-.017-.124Z" fill="#0A0A0A"/><path d="M21.839 14.777c.03.049.036.083.032.14h-.032a.21.21 0 0 1 0-.14Z" fill="#282727"/></g><g clip-path="url(#Mask group__b)"><path d="M30.512 28.019h.357l.352-.001h.378l.871-.002h2.322a1242.68 1242.68 0 0 0 3.076-.003h.217l.645-.001h.734a77.917 77.917 0 0 0 .718-.001h.124a15.792 15.792 0 0 1 .217 0 .481.481 0 0 1 .35.14l.029.044.03.043a.37.37 0 0 1 .05.21v.137a19.681 19.681 0 0 0 .002.323v.085a134.21 134.21 0 0 1 .002.864 85.348 85.348 0 0 1 .003.81v.07c0 .16-.023.283-.14.401l-.044.03-.044.03c-.087.052-.168.049-.266.048h-.298l-.25-.002v.322l.15-.003.144-.001.1-.002c.346-.008.346-.008.487.092.044.044.044.044.074.088l.03.043a.37.37 0 0 1 .05.21v.137a19.681 19.681 0 0 0 .002.323v.085a134.21 134.21 0 0 1 .002.864 85.396 85.396 0 0 1 .003.81v.07c0 .16-.023.283-.14.4l-.044.03-.044.031c-.087.052-.168.049-.266.048h-.298l-.25-.002v.322l.15-.003a34.556 34.556 0 0 1 .243-.003c.347-.008.347-.008.488.092a.395.395 0 0 1 .074.087l.03.044a.37.37 0 0 1 .05.21v.137a19.681 19.681 0 0 0 .002.323v.085a134.06 134.06 0 0 1 .002.864 85.396 85.396 0 0 1 .003.81v.07c0 .16-.023.282-.14.4l-.044.03-.044.031c-.087.052-.168.049-.266.048h-.198l-.1-.001-.25-.001v.053l.002.07v.068a.43.43 0 0 1-.111.31c-.155.141-.261.148-.465.15l-.07.002c-.167.001-.258-.02-.385-.13-.144-.17-.13-.29-.13-.523h-6.575v.258c-.035.175-.113.262-.258.365-.103.035-.209.027-.317.028l-.07.002c-.166.001-.258-.02-.385-.13-.107-.127-.132-.234-.131-.4v-.123l-.062.001a22.22 22.22 0 0 1-.33.005c-.347.008-.347.008-.488-.092-.044-.044-.044-.044-.074-.087l-.03-.044a.37.37 0 0 1-.05-.21v-.212l-.002-.248v-.085a178.728 178.728 0 0 1-.002-.863 71.163 71.163 0 0 1-.002-.572v-.238l-.002-.071c.002-.16.024-.282.141-.4l.044-.03.043-.03c.087-.053.17-.05.267-.049h.047l.15.001h.102l.249.001v-.322l-.15.003a68.71 68.71 0 0 1-.243.003c-.347.008-.347.008-.488-.092-.044-.044-.044-.044-.074-.087l-.03-.044a.37.37 0 0 1-.05-.21v-.212l-.002-.247v-.086a178.847 178.847 0 0 1-.002-.863 71.09 71.09 0 0 1-.002-.572v-.238l-.002-.071c.002-.16.024-.282.141-.4l.044-.03.043-.03c.087-.052.17-.05.267-.049h.047l.15.001h.102l.249.001v-.322l-.15.003-.144.002c-.033 0-.066 0-.1.002-.346.007-.346.007-.487-.093-.044-.044-.044-.044-.074-.087l-.03-.044a.37.37 0 0 1-.05-.21v-.212l-.002-.247v-.086a178.847 178.847 0 0 1-.002-.863 71.124 71.124 0 0 1-.002-.572V28.6l-.002-.071c.002-.16.024-.282.141-.4l.044-.03.043-.03c.09-.053.174-.05.274-.05Zm5.353 3.075-.019.052c-.024.055-.024.055-.067.077a3.137 3.137 0 0 1-.14.003h-.045l-.147.001h-.105l-.287.002-.3.002-.567.003a695.34 695.34 0 0 0-1.975.01v.322h6.574v-.322h-.071a104.945 104.945 0 0 1-1.005-.002 36.133 36.133 0 0 1-.455-.002h-.229c-.049-.001-.049-.001-.13-.017-.05-.065-.05-.065-.087-.13-.075-.015-.075-.015-.155-.007l-.083.003-.062.005-.02.052c-.023.055-.023.055-.066.077-.115.013-.115.013-.172 0l-.035-.065c-.045-.072-.045-.072-.123-.073-.077 0-.152.003-.229.009Zm-3.652 3.695v.322h6.574v-.322h-6.574Z" fill="#000"/><path d="M30.598 28.333h1.07a296.218 296.218 0 0 1 1.324 0h.256a1161.289 1161.289 0 0 1 2.988 0h1.857l.593-.001a289.683 289.683 0 0 1 1.55 0h.214c.074.001.113.006.173.052.04.054.044.08.044.147v1.318a78.167 78.167 0 0 1 0 .825v.114c-.016.069-.04.093-.097.134-.067.01-.067.01-.148.01h-.303l-.232.001h-.367l-.711.001a303.88 303.88 0 0 0-1.602.001h-.224c-.064.003-.064.003-.105.036-.03.042-.03.042-.046.123h-.322l-.022.107c-.081.055-.14.056-.236.043-.058-.039-.064-.062-.086-.129h-.064l-.082-.002-.083-.002-.072-.017c-.039-.065-.039-.065-.064-.13-.05-.024-.077-.023-.132-.023h-.561l-.339-.001a318.743 318.743 0 0 1-.719-.002h-.615l-.773-.002a418.918 418.918 0 0 1-1.656-.003h-.426c-.136-.001-.136-.001-.206-.049a.231.231 0 0 1-.041-.15l-.001-.06v-1.258a67 67 0 0 1 0-.375v-.16a23.63 23.63 0 0 1 0-.289v-.114c.032-.14.143-.147.266-.145Zm0 7.09h.698l.372-.001a253.901 253.901 0 0 1 1.324 0h.256a1161.278 1161.278 0 0 1 2.988 0h1.857a390.458 390.458 0 0 0 1.315 0 90.577 90.577 0 0 0 .828 0h.214c.074.001.113.006.173.052.04.054.044.08.044.147v1.318a78.208 78.208 0 0 1 0 .758v.181c-.016.069-.041.09-.097.134-.059.008-.11.011-.169.01h-.225l-.126.001h-.718a253.901 253.901 0 0 1-1.324 0h-.256a1161.236 1161.236 0 0 1-2.988 0h-1.857a390.458 390.458 0 0 0-1.315 0 90.577 90.577 0 0 0-.828 0h-.214c-.075 0-.114-.006-.173-.052-.04-.053-.044-.08-.044-.146l-.001-.062v-2.196c.032-.14.143-.146.266-.144Zm0-3.545h1.07a296.218 296.218 0 0 1 1.324 0h.085l.171-.001a1354.847 1354.847 0 0 1 2.988 0 1068.801 1068.801 0 0 1 1.772 0h.085a390.458 390.458 0 0 0 1.315 0 90.577 90.577 0 0 0 .828 0h.214c.074.001.113.006.173.052.04.054.044.08.044.147v1.318a78.17 78.17 0 0 1 0 .886v.053c-.016.069-.041.09-.097.134-.059.008-.11.011-.169.01l-.052.001h-1.017a253.901 253.901 0 0 1-1.324 0h-.256a1161.236 1161.236 0 0 1-2.988 0h-1.857a390.458 390.458 0 0 0-1.315 0 90.577 90.577 0 0 0-.828 0h-.214c-.075 0-.114-.006-.173-.052-.04-.053-.044-.08-.044-.146l-.001-.062v-2.195c.032-.14.143-.147.266-.145Z" fill="#46558B"/><path d="M33.695 36.078c.102-.007.2-.012.301 0a.6.6 0 0 1 .086.129c.06.02.111.02.172 0l.035-.064c.05-.065.05-.065.12-.078.205-.008.205-.008.269.042.022.034.022.034.049.1.06.03.108.024.175.025h.13l.14.001a59.263 59.263 0 0 0 .738.005c.302 0 .302 0 .428.098a.435.435 0 0 1 .134.355c-.012.123-.08.199-.162.283-.106.08-.214.077-.341.077a406.023 406.023 0 0 1-.794 0 353.168 353.168 0 0 0-1.138 0 331.068 331.068 0 0 0-1.428.002 183.362 183.362 0 0 0-.788 0h-.388a.442.442 0 0 1-.343-.134c-.095-.102-.113-.197-.11-.335.019-.125.086-.2.179-.282.1-.07.196-.066.315-.065h.069l.145.001h.231l.49.001h.568l.227.002h.14l.063.001c.1 0 .145-.002.226-.065.04-.052.04-.052.062-.099Zm-2.245-3.386h.264l.146-.001h.807l.693.001h.713a307.952 307.952 0 0 1 1.91.002h.056a.465.465 0 0 1 .299.097.435.435 0 0 1 .134.355c-.012.123-.08.199-.162.283-.106.081-.214.077-.341.077h-.794a353.168 353.168 0 0 0-1.138 0 275.89 275.89 0 0 0-1.428.002h-.406a81.069 81.069 0 0 1-.714 0h-.056a.442.442 0 0 1-.343-.134c-.095-.102-.113-.197-.11-.335.019-.126.086-.201.18-.282.095-.066.178-.067.29-.065Zm0-3.545h3.811a62.21 62.21 0 0 1 .722.002h.056a.464.464 0 0 1 .299.097.434.434 0 0 1 .134.355c-.012.123-.08.199-.162.283-.106.081-.214.077-.341.077h-1.12a439.238 439.238 0 0 1-1.516.001 349.306 349.306 0 0 1-1.512.001h-.388a.442.442 0 0 1-.343-.134c-.095-.102-.113-.197-.11-.335.019-.126.086-.201.18-.282.095-.066.178-.067.29-.065Z" fill="#D9D9EA"/><path d="M31.692 32.366h2.398a208.208 208.208 0 0 1 1.6 0h.144c.302-.002.523.009.76.215a.78.78 0 0 1 .2.568.735.735 0 0 1-.24.497c-.184.142-.34.18-.566.18h-.408a378.264 378.264 0 0 1-1.323.002h-.221a338.155 338.155 0 0 0-1.445.003 140.563 140.563 0 0 0-.938.002h-.25a.797.797 0 0 1-.565-.247.863.863 0 0 1-.172-.645.771.771 0 0 1 .325-.462c.221-.132.45-.114.7-.113Zm-.672.538a.477.477 0 0 0-.01.364c.071.1.16.193.279.232l.192.003h.404l.391.001h.244l.675.001h.219a414.894 414.894 0 0 1 1.43.002 183.784 183.784 0 0 1 .93.001 30.624 30.624 0 0 0 .248 0 .441.441 0 0 0 .343-.134c.095-.102.113-.197.11-.335-.018-.119-.086-.199-.172-.279-.1-.065-.195-.058-.31-.058h-.06l-.204-.001a17042.58 17042.58 0 0 1-.623-.003h-.082l-.766-.001h-.222l-.714-.003a179.245 179.245 0 0 0-1.145-.003 45.455 45.455 0 0 0-.529-.002h-.251c-.167.002-.281.08-.377.215Zm.672-4.083h2.398a189.278 189.278 0 0 1 1.6 0h.144c.302-.002.523.009.76.216a.78.78 0 0 1 .2.567.735.735 0 0 1-.24.497c-.184.142-.34.18-.566.18h-.408l-.476.002h-.164a776.573 776.573 0 0 1-.86 0h-.044a338.155 338.155 0 0 0-1.445.003l-.41.001a71.098 71.098 0 0 1-.722 0l-.056.002a.797.797 0 0 1-.565-.248.863.863 0 0 1-.172-.645.771.771 0 0 1 .325-.462c.221-.132.45-.114.7-.113Zm-.672.538a.477.477 0 0 0-.01.364c.071.1.16.193.279.232l.192.003h.404l.391.001h.244l.675.001h.219a331.915 331.915 0 0 1 1.43.002 183.784 183.784 0 0 1 .93.001h.248a.441.441 0 0 0 .343-.134c.095-.102.113-.197.11-.334-.018-.12-.086-.2-.172-.28-.1-.065-.195-.058-.31-.058h-.06l-.204-.001-.145-.001-.478-.002h-.082a651.502 651.502 0 0 0-.943-.002h-.045c-.238 0-.476 0-.714-.002a179.245 179.245 0 0 0-1.145-.003 45.455 45.455 0 0 0-.529-.002h-.251c-.167.002-.281.08-.377.215Z" fill="#030303"/><path d="M31.752 35.913h.16a55.797 55.797 0 0 0 1.094.004h.159l.22.001h.067a131.837 131.837 0 0 0 .113.001c.056.01.075.027.109.073.015.12.015.12 0 .172-.047.051-.085.082-.154.094a2.795 2.795 0 0 1-.176.002h-.213l-.231-.001c-.218 0-.437 0-.655-.002a53.653 53.653 0 0 0-.554 0h-.214l-.064-.002a.43.43 0 0 0-.339.145c-.077.107-.079.217-.064.344a.5.5 0 0 0 .215.258c.085.028.167.024.256.024h.261l.144.001h.39l.244.001h.894a414.777 414.777 0 0 1 1.43.002 137.906 137.906 0 0 1 .93.001h.248a.454.454 0 0 0 .332-.123c.087-.102.102-.192.1-.324-.018-.121-.078-.197-.174-.271-.114-.064-.24-.053-.368-.052h-.436a35.943 35.943 0 0 1-.482 0h-.159c-.08-.013-.116-.04-.173-.097-.018-.063-.008-.104 0-.172.024-.037.024-.037.065-.064.064-.009.064-.009.143-.01h.044l.143-.001h.1l.212-.001.268-.002a20.583 20.583 0 0 1 .307-.002c.253-.003.454.042.65.215.148.161.203.35.2.564a.778.778 0 0 1-.241.504.86.86 0 0 1-.57.178h-.408l-.394.001a201.72 201.72 0 0 0-1.06.001h-.089a281.162 281.162 0 0 0-1.442.002 112.231 112.231 0 0 0-.797 0 33.324 33.324 0 0 0-.334 0l-.057.002a.798.798 0 0 1-.564-.248.86.86 0 0 1-.172-.645c.042-.195.166-.344.323-.462.233-.144.498-.114.763-.111Z" fill="#020203"/><path d="M39.532 35.92c.042 0 .084 0 .127-.002a14.033 14.033 0 0 1 .24-.003.44.44 0 0 1 .328.12c.1.114.123.218.12.366v.501a.5.5 0 0 1-.13.348c-.123.109-.234.124-.392.126h-.055l-.114.002-.173.003c-.332.004-.332.004-.467-.1-.111-.133-.134-.232-.133-.4v-.547a.396.396 0 0 1 .133-.313c.159-.124.32-.1.516-.1Z" fill="#010302"/><path d="M37.593 35.917h.178a12.417 12.417 0 0 0 .3.001h.055c.126.002.22.023.314.112a119.417 119.417 0 0 1 .063.078c.089.119.054.314.055.457l.002.127.002.183.002.057a.46.46 0 0 1-.12.328c-.126.098-.224.11-.378.112h-.055l-.116.002a17.059 17.059 0 0 0-.287.002l-.053.002a.445.445 0 0 1-.33-.13c-.102-.13-.12-.23-.122-.39l-.001-.055-.001-.113c0-.058-.002-.116-.003-.173-.004-.333-.004-.333.1-.468a.513.513 0 0 1 .395-.132Z" fill="#030101"/><path d="M39.532 32.375c.042 0 .084 0 .127-.002a12.473 12.473 0 0 1 .24-.003.44.44 0 0 1 .328.12c.1.114.123.218.12.366v.501a.5.5 0 0 1-.13.348c-.123.109-.234.124-.392.126h-.055l-.114.002-.173.003c-.332.004-.332.004-.467-.1-.111-.133-.134-.231-.133-.4v-.547a.396.396 0 0 1 .133-.313c.159-.124.32-.1.516-.1Z" fill="#010302"/><path d="M37.593 32.372h.178a13.97 13.97 0 0 0 .3.002h.055c.126.001.22.022.314.111.01.013.02.026.032.039a.39.39 0 0 0 .032.039c.088.119.053.314.054.457l.002.127a12.474 12.474 0 0 1 .003.24.46.46 0 0 1-.12.328c-.125.097-.223.111-.377.112h-.055l-.116.002a17.059 17.059 0 0 0-.287.002l-.053.002a.446.446 0 0 1-.33-.13c-.102-.13-.12-.23-.122-.39l-.001-.055-.001-.114-.003-.172c-.004-.333-.004-.333.1-.468a.513.513 0 0 1 .395-.132Z" fill="#030101"/><path d="m39.532 28.83.127-.001c.06-.002.122-.002.183-.002l.057-.002a.44.44 0 0 1 .328.12c.1.114.123.218.12.366v.501a.5.5 0 0 1-.13.348c-.123.109-.234.124-.392.126h-.055l-.114.002-.173.003c-.332.004-.332.004-.467-.1-.111-.132-.134-.231-.133-.4v-.547a.396.396 0 0 1 .133-.313c.159-.124.32-.1.516-.1Z" fill="#010302"/><path d="M37.593 28.827h.178a12.417 12.417 0 0 0 .3.002h.055c.126.001.22.022.314.111.01.013.02.026.032.039a.39.39 0 0 0 .032.039c.088.119.053.314.054.457l.002.127a12.474 12.474 0 0 1 .003.24.46.46 0 0 1-.12.328c-.125.098-.223.111-.377.112l-.055.001h-.116l-.175.003h-.112l-.053.002a.446.446 0 0 1-.33-.13c-.102-.13-.12-.23-.122-.39l-.001-.054-.001-.114c0-.058-.002-.116-.003-.173-.004-.332-.004-.332.1-.467a.514.514 0 0 1 .395-.133Z" fill="#030101"/><path d="M39.31 36.248h.145a42.735 42.735 0 0 1 .269 0l.266.002c.032.064.025.13.025.2v.148l.002.151v.141c0 .107 0 .107-.048.155a1.846 1.846 0 0 1-.158.005h-.146l-.151-.001h-.143c-.107-.002-.107-.002-.155-.026l-.001-.32v-.109l-.001-.156v-.05c0-.038 0-.078.002-.116.021-.022.021-.022.093-.024Z" fill="#61E7A0"/><path d="m37.455 36.25.32-.001h.11l.156-.001h.049c.039 0 .078 0 .117.002.022.022.022.022.024.093v.145l-.001.16v.11l-.001.265c-.065.033-.13.025-.201.025h-.148l-.15.002h-.142c-.108 0-.108 0-.155-.048a1.846 1.846 0 0 1-.005-.158v-.047a32.376 32.376 0 0 1 0-.25l.001-.096v-.046c.001-.107.001-.107.025-.155Z" fill="#FD6219"/><path d="M39.31 32.703h.305l.109.001.266.001c.032.064.025.13.025.2v.148l.002.151v.141c0 .107 0 .107-.048.155a1.806 1.806 0 0 1-.158.005h-.146l-.151-.001h-.143c-.107-.002-.107-.002-.155-.026l-.001-.32v-.109a40.717 40.717 0 0 1 0-.322c.022-.022.022-.022.094-.024Z" fill="#61E7A0"/><path d="m37.455 32.705.32-.001h.11l.156-.001h.049c.039 0 .078 0 .117.002.022.022.022.022.024.093v.145a42.828 42.828 0 0 1-.001.27l-.001.265c-.065.033-.13.026-.201.026h-.047a32.473 32.473 0 0 1-.25 0h-.097l-.045.001c-.108 0-.108 0-.155-.048a1.848 1.848 0 0 1-.005-.158v-.146a19.127 19.127 0 0 0 .001-.247v-.046c.001-.107.001-.107.025-.155Z" fill="#FD6219"/><path d="M39.31 29.158h.305l.109.001.266.001c.032.064.025.13.025.2v.148l.002.151v.141c0 .107 0 .107-.048.155a1.806 1.806 0 0 1-.158.005h-.297l-.097-.001h-.045c-.107-.001-.107-.001-.155-.025l-.001-.32v-.11a40.717 40.717 0 0 1 0-.322c.022-.022.022-.022.094-.024Z" fill="#61E7A0"/><path d="M37.455 29.16a113.851 113.851 0 0 1 .43-.002h.205c.039 0 .078 0 .117.002.022.022.022.022.024.093v.145l-.001.161v.108l-.001.267c-.065.032-.13.025-.201.025h-.298l-.097.001h-.045c-.108 0-.108 0-.155-.048a1.848 1.848 0 0 1-.005-.158v-.297l.001-.096v-.046c.001-.107.001-.107.025-.155Z" fill="#FD6219"/><path d="M39.13 34.79h.473v.321h-.472v-.322Zm-7.734 0h.473v.321h-.473v-.322Zm7.734-3.546h.473v.322h-.472v-.322Zm-7.734 0h.473v.322h-.473v-.322Z" fill="#9E9EB2"/><path d="M39.13 38.334h.473c.008.243.008.243-.021.298-.068.039-.139.034-.215.032l-.047.001a.31.31 0 0 1-.167-.033c-.048-.088-.025-.202-.022-.298Zm-7.734 0h.473c.008.243.008.243-.022.298-.068.039-.138.034-.214.032l-.047.001a.31.31 0 0 1-.168-.033c-.047-.088-.025-.202-.021-.298Z" fill="#9C9CB0"/><path d="M36.402 30.922c.073.053.103.084.12.173-.012.063-.012.063-.044.114-.08.053-.131.046-.226.035-.048-.03-.06-.053-.082-.105-.007-.076.023-.13.066-.192.059-.04.097-.036.166-.025Z" fill="#010102"/><path d="M34.254 35.928c.043.021.043.021.064.064a.341.341 0 0 1-.021.215.341.341 0 0 1-.215.021c-.043-.021-.043-.021-.064-.064a.342.342 0 0 1 .021-.215.343.343 0 0 1 .215-.021Z" fill="#030304"/></g><g clip-path="url(#Mask group__c)"><path d="M2.512 28.019h.357l.352-.001h.378l.871-.002h2.322a1242.71 1242.71 0 0 0 3.076-.003h.217l.645-.001h.734a77.917 77.917 0 0 0 .717-.001h.125a15.792 15.792 0 0 1 .217 0 .481.481 0 0 1 .35.14l.029.044.03.043a.37.37 0 0 1 .05.21v.137a19.681 19.681 0 0 0 .002.323v.085a134.21 134.21 0 0 1 .002.864 85.348 85.348 0 0 1 .003.81v.07c0 .16-.023.283-.14.401l-.044.03-.043.03c-.088.052-.17.049-.267.048h-.298l-.25-.002v.322a245.662 245.662 0 0 1 .294-.004l.1-.002c.346-.008.346-.008.487.092.044.044.044.044.074.088l.03.043a.37.37 0 0 1 .05.21v.137a19.681 19.681 0 0 0 .002.323v.085a134.21 134.21 0 0 1 .002.864 85.396 85.396 0 0 1 .003.81v.07c0 .16-.023.283-.14.4l-.044.03-.043.031c-.088.052-.17.049-.267.048h-.298l-.25-.002v.322l.15-.003a34.556 34.556 0 0 1 .243-.003c.347-.008.347-.008.488.092.044.044.044.044.074.087l.03.044a.37.37 0 0 1 .05.21v.212l.002.248v.085a134.06 134.06 0 0 1 .002.864 85.396 85.396 0 0 1 .003.81v.07c0 .16-.023.282-.14.4l-.044.03-.043.031c-.088.052-.17.049-.267.048h-.048a37.351 37.351 0 0 1-.25-.001l-.25-.001v.053a268.752 268.752 0 0 1 .002.138.43.43 0 0 1-.111.31c-.155.141-.261.148-.465.15l-.07.002c-.167.001-.258-.02-.385-.13-.144-.17-.13-.29-.13-.523H4.212v.258c-.035.175-.113.262-.258.365-.103.035-.209.027-.317.028l-.07.002c-.166.001-.258-.02-.385-.13-.107-.127-.132-.234-.131-.4v-.123l-.062.001a22.254 22.254 0 0 1-.33.005c-.347.008-.347.008-.488-.092-.044-.044-.044-.044-.074-.087l-.03-.044a.37.37 0 0 1-.05-.21v-.212l-.002-.248v-.085a243.637 243.637 0 0 1-.002-.863 73.617 73.617 0 0 1-.003-.81v-.071c0-.16.023-.282.14-.4l.044-.03.043-.03c.087-.053.17-.05.267-.049a7.417 7.417 0 0 0 .197.001h.102l.249.001v-.322l-.15.003a69.538 69.538 0 0 1-.243.003c-.347.008-.347.008-.488-.092-.044-.044-.044-.044-.074-.087l-.03-.044a.37.37 0 0 1-.05-.21v-.212l-.002-.247v-.086a243.883 243.883 0 0 1-.002-.863 73.54 73.54 0 0 1-.003-.81v-.071c0-.16.023-.282.14-.4l.044-.03.043-.03c.087-.052.17-.05.267-.049h.047l.15.001h.102l.249.001v-.322l-.15.003-.144.002c-.033 0-.066 0-.1.002-.346.007-.346.007-.487-.093-.044-.044-.044-.044-.074-.087l-.03-.044a.37.37 0 0 1-.05-.21v-.212l-.002-.247v-.086a243.883 243.883 0 0 1-.002-.863 73.576 73.576 0 0 1-.003-.81v-.071c0-.16.023-.282.14-.4l.044-.03.043-.03c.09-.053.174-.05.274-.05Zm5.353 3.075-.019.052c-.024.055-.024.055-.067.077a3.137 3.137 0 0 1-.14.003h-.045l-.147.001h-.105l-.287.002-.3.002-.567.003c-.216 0-.43.002-.646.003l-1.33.007v.322h6.575v-.322h-.071a104.945 104.945 0 0 1-1.005-.002 36.15 36.15 0 0 1-.455-.002h-.229c-.048-.001-.048-.001-.13-.017-.05-.065-.05-.065-.087-.13-.075-.015-.075-.015-.155-.007l-.083.003-.062.005-.02.052c-.023.055-.023.055-.066.077-.115.013-.115.013-.172 0l-.035-.065c-.045-.072-.045-.072-.123-.073-.077 0-.152.003-.229.009Zm-3.652 3.695v.322h6.574v-.322H4.213Z" fill="#000"/><path d="M2.598 28.333h1.07a296.225 296.225 0 0 1 1.324 0h.256a1161.22 1161.22 0 0 1 2.988 0h1.857a390.458 390.458 0 0 0 1.315 0 90.577 90.577 0 0 0 .828 0h.215c.073 0 .112.006.172.051.04.054.044.08.044.147v1.318a78.167 78.167 0 0 1 0 .825v.114c-.015.069-.04.093-.097.134-.067.01-.067.01-.148.01h-.303l-.232.001h-.367l-.711.001a303.9 303.9 0 0 0-1.602.001h-.224c-.064.003-.064.003-.105.036-.03.042-.03.042-.046.123H8.51l-.022.107c-.081.055-.14.056-.236.043-.058-.039-.064-.062-.086-.129h-.064l-.082-.002-.083-.002a75.918 75.918 0 0 1-.072-.017c-.039-.065-.039-.065-.064-.13-.05-.024-.077-.023-.132-.023h-.561l-.339-.001-.536-.001h-.229l-.521-.002h-.048a663.15 663.15 0 0 0-2.055-.003 78.013 78.013 0 0 1-.528 0l-.21-.001H2.58c-.136-.001-.136-.001-.206-.049a.231.231 0 0 1-.041-.15l-.001-.06v-.067a306.475 306.475 0 0 0 0-.303 173.13 173.13 0 0 0 0-.498v-.39a67.971 67.971 0 0 1 0-.757v-.181c.033-.14.143-.147.266-.145Zm0 7.09h.698l.372-.001a253.908 253.908 0 0 1 1.324 0h.256a1161.22 1161.22 0 0 1 2.988 0h1.857a390.458 390.458 0 0 0 1.315 0 90.577 90.577 0 0 0 .828 0h.215c.073.001.112.006.172.052.04.054.044.08.044.147v1.318a78.208 78.208 0 0 1 0 .758v.181c-.015.069-.041.09-.097.134a1.06 1.06 0 0 1-.168.01h-.227l-.125.001h-.718a253.901 253.901 0 0 1-1.324 0h-.256a1161.22 1161.22 0 0 1-2.988 0H4.907a390.458 390.458 0 0 0-1.315 0 90.607 90.607 0 0 0-.828 0H2.55c-.074 0-.114-.006-.173-.052-.04-.053-.044-.08-.044-.146l-.001-.062v-.137a27.137 27.137 0 0 1 0-.393v-.727a68.007 68.007 0 0 1 0-.757v-.182c.033-.14.143-.146.266-.144Zm0-3.545h1.07a296.225 296.225 0 0 1 1.324 0h.085l.171-.001a1354.758 1354.758 0 0 1 2.988 0 1068.735 1068.735 0 0 1 1.772 0h.085a390.458 390.458 0 0 0 1.315 0 90.577 90.577 0 0 0 .828 0h.215c.073.001.112.006.172.052.04.054.044.08.044.147v1.318a78.17 78.17 0 0 1 0 .886v.053c-.015.069-.041.09-.097.134a1.06 1.06 0 0 1-.168.01l-.053.001h-1.017a253.901 253.901 0 0 1-1.324 0h-.256a1161.22 1161.22 0 0 1-2.988 0H4.907a390.458 390.458 0 0 0-1.315 0 90.607 90.607 0 0 0-.828 0H2.55c-.074 0-.114-.006-.173-.052-.04-.053-.044-.08-.044-.146l-.001-.062v-.066a306.475 306.475 0 0 0 0-.303 172.378 172.378 0 0 0 0-.498v-.39a67.967 67.967 0 0 1 0-.757v-.181c.033-.14.143-.147.266-.145Z" fill="#46558B"/><path d="M5.695 36.078c.102-.007.2-.012.301 0a.6.6 0 0 1 .086.129c.06.02.111.02.172 0l.035-.064c.05-.065.05-.065.12-.078.205-.008.205-.008.269.042.022.034.022.034.049.1.06.03.108.024.175.025a592.558 592.558 0 0 0 1.008.006c.302 0 .302 0 .428.098a.434.434 0 0 1 .134.355c-.012.123-.08.199-.162.283-.106.08-.214.077-.341.077h-.404a169.038 169.038 0 0 1-.716 0 732.01 732.01 0 0 1-1.516.001 349.272 349.272 0 0 1-1.512.001h-.388a.442.442 0 0 1-.343-.134c-.095-.102-.113-.197-.11-.335.019-.125.086-.2.179-.282.1-.07.196-.066.315-.065h.069l.145.001h.231l.49.001h.568l.227.002h.14l.063.001c.1 0 .145-.002.226-.065.04-.052.04-.052.062-.099ZM3.45 32.692h.264l.146-.001h.807l.693.001h.713a307.973 307.973 0 0 1 1.91.002h.056a.465.465 0 0 1 .299.097.434.434 0 0 1 .134.355c-.012.123-.08.199-.162.283-.106.081-.214.077-.341.077h-.794a353.103 353.103 0 0 0-1.138 0 275.906 275.906 0 0 0-1.428.002 183.4 183.4 0 0 0-.929 0h-.247a.442.442 0 0 1-.343-.134c-.095-.102-.113-.197-.11-.335.019-.126.086-.201.18-.282.095-.066.178-.067.29-.065Zm0-3.545h2.623a307.973 307.973 0 0 1 1.91.002h.056a.464.464 0 0 1 .299.097.434.434 0 0 1 .134.355c-.012.123-.08.199-.162.283-.106.081-.214.077-.341.077h-1.12a439.206 439.206 0 0 1-1.516.001 349.272 349.272 0 0 1-1.512.001h-.388a.442.442 0 0 1-.343-.134c-.095-.102-.113-.197-.11-.335.019-.126.086-.201.18-.282.095-.066.178-.067.29-.065Z" fill="#D9D9EA"/><path d="M3.692 32.366H6.09a208.197 208.197 0 0 1 1.6 0h.144c.302-.002.523.009.76.215a.78.78 0 0 1 .2.568.735.735 0 0 1-.24.497c-.183.142-.34.18-.566.18H7.58a378.331 378.331 0 0 1-1.323.002h-.221a338.202 338.202 0 0 0-1.445.003 140.556 140.556 0 0 0-.938.002h-.25a.796.796 0 0 1-.565-.247.863.863 0 0 1-.172-.645.771.771 0 0 1 .325-.462c.221-.132.45-.114.7-.113Zm-.672.538a.477.477 0 0 0-.01.364c.071.1.16.193.279.232l.192.003h.261a328608.778 328608.778 0 0 1 1.453.002h.219a414.847 414.847 0 0 1 1.43.002 183.793 183.793 0 0 1 .93.001h.248a.441.441 0 0 0 .343-.134c.095-.102.113-.197.11-.335-.018-.119-.086-.199-.172-.279-.1-.065-.195-.058-.31-.058h-.06l-.204-.001-.145-.001-.478-.002h-.082l-.766-.001h-.222l-.714-.003a179.24 179.24 0 0 0-1.145-.003 45.455 45.455 0 0 0-.529-.002h-.251c-.167.002-.281.08-.377.215Zm.672-4.083H6.09a189.27 189.27 0 0 1 1.6 0h.144c.302-.002.523.009.76.216a.78.78 0 0 1 .2.567.735.735 0 0 1-.24.497c-.183.142-.34.18-.566.18a12.148 12.148 0 0 1-.263 0H7.58l-.476.002H6.036a338.202 338.202 0 0 0-1.445.003 112.445 112.445 0 0 0-.938.002 17.885 17.885 0 0 1-.25 0 .797.797 0 0 1-.565-.247.863.863 0 0 1-.172-.645.771.771 0 0 1 .325-.462c.221-.132.45-.114.7-.113Zm-.672.538a.477.477 0 0 0-.01.364c.071.1.16.193.279.232l.192.003h.405l.39.001a198.258 198.258 0 0 1 .92.001h.217a331.878 331.878 0 0 1 1.43.002 183.794 183.794 0 0 1 .93.001h.248a.441.441 0 0 0 .343-.134c.095-.102.113-.197.11-.334-.018-.12-.086-.2-.172-.28-.1-.065-.195-.058-.31-.058h-.06l-.204-.001-.145-.001-.478-.002h-.082a651.921 651.921 0 0 0-.943-.002h-.045c-.238 0-.476 0-.714-.002a179.24 179.24 0 0 0-1.145-.003 45.455 45.455 0 0 0-.529-.002h-.251c-.167.002-.281.08-.377.215Z" fill="#030303"/><path d="M3.752 35.913a85.632 85.632 0 0 0 .495.002 55.807 55.807 0 0 0 .76.002h.158l.22.001h.067l.06.001h.053c.056.01.075.027.109.073.015.12.015.12 0 .172-.046.051-.085.082-.154.094a2.792 2.792 0 0 1-.176.002H5.13l-.231-.001c-.219 0-.437 0-.656-.002a53.638 53.638 0 0 0-.553 0h-.214l-.063-.002a.43.43 0 0 0-.34.145c-.077.107-.079.217-.064.344a.5.5 0 0 0 .215.258c.085.028.167.024.256.024h.261l.144.001h.39l.244.001h.895a414.835 414.835 0 0 1 1.43.002 137.845 137.845 0 0 1 .93.001h.248a.454.454 0 0 0 .332-.123c.087-.102.103-.192.1-.324-.018-.121-.078-.197-.174-.271-.114-.064-.24-.053-.368-.052h-.436a35.939 35.939 0 0 1-.482 0h-.159c-.08-.013-.116-.04-.173-.097-.018-.063-.008-.104 0-.172.024-.037.024-.037.065-.064.063-.009.063-.009.143-.01h.044l.143-.001h.1l.212-.001.268-.002a20.576 20.576 0 0 1 .307-.002c.253-.003.454.042.65.215.148.161.203.35.2.564a.779.779 0 0 1-.241.504.86.86 0 0 1-.57.178 414.861 414.861 0 0 1-.263 0h-.145a258.268 258.268 0 0 1-1.454.002h-.089a281.163 281.163 0 0 0-1.442.002 112.204 112.204 0 0 0-.797 0 33.319 33.319 0 0 0-.335 0l-.056.002a.798.798 0 0 1-.564-.248.86.86 0 0 1-.172-.645c.042-.195.166-.344.323-.462.233-.144.498-.114.763-.111Z" fill="#020203"/><path d="M11.532 35.92c.042 0 .084 0 .127-.002a14.033 14.033 0 0 1 .24-.003.44.44 0 0 1 .328.12c.1.114.123.218.12.366v.501a.5.5 0 0 1-.13.348c-.123.109-.234.124-.392.126h-.055l-.114.002-.173.003c-.332.004-.332.004-.467-.1-.111-.133-.134-.232-.133-.4a382.261 382.261 0 0 1 0-.547.396.396 0 0 1 .133-.313c.159-.124.32-.1.516-.1Z" fill="#010302"/><path d="M9.593 35.917h.178a12.423 12.423 0 0 0 .3.001h.055c.126.002.22.023.314.112.01.013.02.026.032.039l.032.039c.088.119.053.314.054.457l.002.127.002.183.002.057a.46.46 0 0 1-.12.328c-.126.098-.224.11-.378.112h-.055l-.116.002a17.09 17.09 0 0 0-.34.003.445.445 0 0 1-.33-.129c-.102-.13-.12-.23-.122-.39l-.001-.055-.001-.113c0-.058-.002-.116-.003-.173-.004-.333-.004-.333.1-.468a.513.513 0 0 1 .395-.132Z" fill="#030101"/><path d="M11.532 32.375c.042 0 .084 0 .127-.002a12.473 12.473 0 0 1 .24-.003.44.44 0 0 1 .328.12c.1.114.123.218.12.366v.501a.5.5 0 0 1-.13.348c-.123.109-.234.124-.392.126h-.055l-.114.002-.173.003c-.332.004-.332.004-.467-.1-.111-.133-.134-.231-.133-.4a382.261 382.261 0 0 1 0-.547.396.396 0 0 1 .133-.313c.159-.124.32-.1.516-.1Z" fill="#010302"/><path d="M9.593 32.372h.178l.183.001h.172c.126.002.22.023.314.112a15.283 15.283 0 0 0 .063.078c.088.119.054.314.055.457l.002.127a12.474 12.474 0 0 1 .003.24.46.46 0 0 1-.12.328c-.125.097-.223.111-.377.112h-.055a44.447 44.447 0 0 1-.403.004l-.053.002a.446.446 0 0 1-.33-.13c-.102-.13-.12-.23-.122-.39l-.001-.055-.001-.114-.003-.172c-.004-.333-.004-.333.1-.468a.513.513 0 0 1 .395-.132Z" fill="#030101"/><path d="m11.532 28.83.127-.001c.06-.002.122-.002.183-.002l.057-.002a.44.44 0 0 1 .328.12c.1.114.123.218.12.366v.501a.5.5 0 0 1-.13.348c-.123.109-.234.124-.392.126h-.055l-.114.002-.173.003c-.332.004-.332.004-.467-.1-.111-.132-.134-.231-.133-.4a382.261 382.261 0 0 1 0-.183v-.188a24 24 0 0 1 0-.176.396.396 0 0 1 .133-.313c.159-.124.32-.1.516-.1Z" fill="#010302"/><path d="M9.593 28.827h.178a12.422 12.422 0 0 0 .3.002h.055c.126.001.22.022.314.111a15.283 15.283 0 0 0 .063.078c.088.119.054.314.055.457l.002.127a12.474 12.474 0 0 1 .003.24.46.46 0 0 1-.12.328c-.125.098-.223.111-.377.112l-.055.001a44.447 44.447 0 0 1-.403.003l-.053.002a.445.445 0 0 1-.33-.13c-.102-.13-.12-.23-.122-.39l-.001-.054L9.1 29.6c0-.058-.002-.116-.003-.173-.004-.332-.004-.332.1-.467a.514.514 0 0 1 .395-.133Z" fill="#030101"/><path d="M11.31 36.248h.145a42.735 42.735 0 0 1 .269 0l.266.002c.032.064.025.13.025.2v.148l.002.151v.141c0 .107 0 .107-.048.155a1.846 1.846 0 0 1-.158.005h-.146l-.151-.001h-.142c-.107-.002-.107-.002-.155-.026l-.001-.32v-.109l-.001-.156v-.05c0-.038 0-.078.002-.116.021-.022.021-.022.093-.024Z" fill="#61E7A0"/><path d="M9.455 36.25a170.798 170.798 0 0 1 .585-.002h.05c.039 0 .078 0 .117.002.022.022.022.022.024.093v.145l-.001.16v.11l-.001.265c-.065.033-.13.025-.201.025H9.88l-.15.002h-.143c-.106 0-.106 0-.154-.048a1.817 1.817 0 0 1-.005-.205 15.458 15.458 0 0 1 0-.25l.001-.096v-.046c.001-.107.001-.107.025-.155Z" fill="#FD6219"/><path d="M11.31 32.703a15.106 15.106 0 0 1 .145 0h.16l.109.001.266.001c.032.064.025.13.025.2v.148l.002.151v.141c0 .107 0 .107-.048.155a1.806 1.806 0 0 1-.158.005h-.146l-.151-.001h-.142c-.107-.002-.107-.002-.155-.026l-.001-.32v-.109l-.001-.156v-.05c0-.038 0-.077.002-.116.021-.022.021-.022.093-.024Z" fill="#61E7A0"/><path d="m9.455 32.705.32-.001h.11l.155-.001h.05c.039 0 .078 0 .117.002.022.022.022.022.024.093v.145a42.828 42.828 0 0 1-.001.27l-.001.265c-.065.033-.13.026-.201.026h-.394l-.046.001c-.106 0-.106 0-.154-.048a1.82 1.82 0 0 1-.005-.205 15.526 15.526 0 0 1 0-.25l.001-.096v-.046c.001-.107.001-.107.025-.155Z" fill="#FD6219"/><path d="M11.31 29.158h.305l.109.001.266.001c.032.064.025.13.025.2a438.136 438.136 0 0 1 .002.298v.142c0 .107 0 .107-.048.155a1.806 1.806 0 0 1-.158.005h-.297l-.096-.001h-.046c-.107-.001-.107-.001-.155-.025l-.001-.32v-.11l-.001-.156v-.05c0-.038 0-.077.002-.116.021-.022.021-.022.093-.024Z" fill="#61E7A0"/><path d="m9.455 29.16.32-.001h.265l.05-.001c.039 0 .078 0 .117.002.022.022.022.022.024.093v.145l-.001.161v.108l-.001.267c-.065.032-.13.025-.201.025H9.73l-.097.001h-.046c-.106 0-.106 0-.154-.048a1.82 1.82 0 0 1-.005-.205 15.532 15.532 0 0 1 0-.25l.001-.096v-.046c.001-.107.001-.107.025-.155Z" fill="#FD6219"/><path d="M11.13 34.79h.473v.321h-.472v-.322Zm-7.734 0h.473v.321h-.473v-.322Zm7.734-3.546h.473v.322h-.472v-.322Zm-7.734 0h.473v.322h-.473v-.322Z" fill="#9E9EB2"/><path d="M11.13 38.334h.473c.008.243.008.243-.021.298-.068.039-.139.034-.215.032l-.047.001a.31.31 0 0 1-.167-.033c-.048-.088-.025-.202-.022-.298Zm-7.733 0h.472c.008.243.008.243-.022.298-.068.039-.138.034-.214.032l-.047.001a.31.31 0 0 1-.168-.033c-.048-.088-.025-.202-.021-.298Z" fill="#9C9CB0"/><path d="M8.402 30.922c.073.053.103.084.12.173-.012.063-.012.063-.044.114-.08.053-.131.046-.226.035-.048-.03-.06-.053-.082-.105-.007-.076.023-.13.066-.192.059-.04.097-.036.166-.025Z" fill="#010102"/><path d="M6.254 35.928c.043.021.043.021.064.064a.342.342 0 0 1-.021.215.341.341 0 0 1-.215.021c-.043-.021-.043-.021-.064-.064a.342.342 0 0 1 .021-.215.343.343 0 0 1 .215-.021Z" fill="#030304"/></g><g clip-path="url(#Mask group__d)"><path d="M16.512 32.019h.357l.352-.001h.378l.871-.002h2.322a1242.68 1242.68 0 0 0 3.076-.003h.217l.645-.001h.734a77.917 77.917 0 0 0 .718-.001h.124a15.792 15.792 0 0 1 .217 0 .481.481 0 0 1 .35.14 15.635 15.635 0 0 1 .06.087.37.37 0 0 1 .049.21v.137a19.681 19.681 0 0 0 .002.323v.085a134.21 134.21 0 0 1 .002.864 85.348 85.348 0 0 1 .003.81v.07c0 .16-.023.283-.14.401l-.044.03-.043.03c-.088.052-.17.049-.267.048h-.298l-.25-.002v.322a245.662 245.662 0 0 1 .393-.006c.347-.008.347-.008.488.092a.398.398 0 0 1 .074.088l.03.043a.37.37 0 0 1 .05.21v.137a19.681 19.681 0 0 0 .002.323v.085a134.21 134.21 0 0 1 .002.864 85.396 85.396 0 0 1 .003.81v.07c0 .16-.023.283-.14.4l-.044.03-.043.031c-.088.052-.17.049-.267.048h-.298l-.25-.002v.322l.15-.003a34.556 34.556 0 0 1 .243-.003c.347-.008.347-.008.488.092.044.044.044.044.074.087l.03.044a.37.37 0 0 1 .05.21v.137a19.681 19.681 0 0 0 .002.323v.085a134.06 134.06 0 0 1 .002.864 85.396 85.396 0 0 1 .003.81v.07c0 .16-.023.282-.14.4l-.044.03-.043.031c-.088.052-.17.049-.267.048h-.198l-.1-.001-.25-.001v.053a268.752 268.752 0 0 1 .002.138.43.43 0 0 1-.111.31c-.155.141-.261.148-.466.15l-.07.002c-.166.001-.257-.02-.384-.13-.144-.17-.13-.29-.13-.523h-6.575v.258c-.035.175-.113.262-.258.365-.103.035-.209.027-.317.028l-.07.002c-.166.001-.258-.02-.385-.13-.107-.127-.132-.234-.131-.4v-.123l-.062.001a22.22 22.22 0 0 1-.33.005c-.347.008-.347.008-.488-.092-.044-.044-.044-.044-.074-.087l-.03-.044a.37.37 0 0 1-.05-.21v-.212l-.002-.248v-.085a178.728 178.728 0 0 1-.002-.863 71.163 71.163 0 0 1-.002-.572v-.238l-.002-.071c.002-.16.024-.282.141-.4l.044-.03.043-.03c.087-.053.17-.05.267-.049h.047l.15.001h.102l.249.001v-.322l-.15.003a68.71 68.71 0 0 1-.243.003c-.347.008-.347.008-.488-.092-.044-.044-.044-.044-.074-.087l-.03-.044a.37.37 0 0 1-.05-.21v-.212l-.002-.247v-.086a178.847 178.847 0 0 1-.002-.863 71.09 71.09 0 0 1-.002-.572v-.238l-.002-.071c.002-.16.024-.282.141-.4l.044-.03.043-.03c.087-.053.17-.05.267-.049h.047l.15.001h.102l.249.001v-.322l-.15.003-.144.002c-.033 0-.066 0-.1.002-.346.007-.346.007-.487-.093-.044-.044-.044-.044-.074-.087l-.03-.044a.37.37 0 0 1-.05-.21v-.212a102.096 102.096 0 0 1-.003-.734 118.788 118.788 0 0 0-.003-.82 37.986 37.986 0 0 0 0-.452l-.002-.071c.002-.16.024-.282.141-.4l.044-.03.043-.03c.09-.053.174-.05.274-.05Zm5.353 3.075-.019.052c-.024.055-.024.055-.067.077a3.137 3.137 0 0 1-.14.003h-.045l-.147.001h-.105l-.287.002-.3.002-.567.003a695.34 695.34 0 0 0-1.975.01v.322h6.574v-.322h-.071a104.945 104.945 0 0 1-1.005-.002 36.133 36.133 0 0 1-.455-.002h-.229c-.049-.001-.049-.001-.13-.017-.05-.065-.05-.065-.086-.13-.076-.015-.076-.015-.156-.007l-.082.003-.063.005-.02.052c-.023.055-.023.055-.066.077-.115.013-.115.013-.172 0l-.035-.065c-.045-.072-.045-.072-.123-.073-.077 0-.152.003-.229.009Zm-3.652 3.695v.322h6.574v-.322h-6.574Z" fill="#000"/><path d="M16.598 32.333h1.07a296.218 296.218 0 0 1 1.324 0h.256a1161.289 1161.289 0 0 1 2.988 0h1.857l.593-.001a289.683 289.683 0 0 1 1.55 0h.215c.073.001.112.007.172.052.04.054.044.08.044.147v1.318a78.167 78.167 0 0 1 0 .825v.113c-.016.069-.04.093-.097.134-.067.01-.067.01-.148.01h-.196a13842.01 13842.01 0 0 1-1.417.002 303.88 303.88 0 0 0-1.497.001h-.329c-.064.003-.064.003-.105.036-.03.042-.03.042-.046.123h-.322l-.022.107c-.081.054-.14.056-.236.043-.058-.039-.064-.062-.086-.129h-.064l-.082-.003-.083-.001a58.819 58.819 0 0 1-.072-.017c-.039-.065-.039-.065-.064-.13-.05-.024-.077-.023-.131-.023h-.562a383.07 383.07 0 0 0-1.058-.003h-.615l-.773-.002a418.918 418.918 0 0 1-1.656-.002h-.154l-.21-.001h-.062c-.136-.001-.136-.001-.206-.048a.231.231 0 0 1-.041-.15l-.001-.062v-1.256a67 67 0 0 1 0-.375v-.563c.032-.14.143-.147.266-.145Zm0 7.09h.698l.372-.001a253.901 253.901 0 0 1 1.324 0h.256a1161.278 1161.278 0 0 1 2.988 0h1.857a390.458 390.458 0 0 0 1.315 0 90.577 90.577 0 0 0 .828 0h.215c.073.001.112.006.172.052.04.054.044.08.044.147v1.318a78.163 78.163 0 0 1 0 .758v.181c-.016.069-.041.09-.097.134a1.03 1.03 0 0 1-.169.01h-.226l-.125.001h-2.298a1354.775 1354.775 0 0 1-2.988 0h-1.857a390.458 390.458 0 0 0-1.315 0 75.485 75.485 0 0 0-.706 0 16.624 16.624 0 0 0-.288 0h-.048c-.075 0-.114-.006-.173-.052-.04-.053-.044-.08-.044-.146l-.001-.062v-1.792a23.648 23.648 0 0 1 0-.289v-.114c.032-.14.143-.147.266-.145Zm0-3.545h1.07a296.218 296.218 0 0 1 1.324 0h.085l.171-.001a1354.847 1354.847 0 0 1 2.988 0 1068.801 1068.801 0 0 1 1.772 0h.085a390.458 390.458 0 0 0 1.315 0 90.577 90.577 0 0 0 .828 0h.215c.073.001.112.006.172.052.04.054.044.08.044.147v1.318a78.17 78.17 0 0 1 0 .886v.053c-.016.069-.041.09-.097.134-.059.008-.11.011-.169.01l-.052.001h-1.017a253.901 253.901 0 0 1-1.324 0h-.256a1161.236 1161.236 0 0 1-2.988 0h-1.857a390.458 390.458 0 0 0-1.315 0 90.577 90.577 0 0 0-.828 0h-.214c-.075 0-.114-.006-.173-.052-.04-.053-.044-.08-.044-.146l-.001-.062v-2.195c.032-.14.143-.147.266-.145Z" fill="#46558B"/><path d="M19.695 40.078c.102-.007.2-.012.301 0a.6.6 0 0 1 .086.129c.06.02.111.02.172 0l.035-.064c.05-.065.05-.065.12-.078.204-.008.204-.008.269.042.022.034.022.034.049.1.06.03.108.024.175.025h.13l.14.001a66.67 66.67 0 0 0 .738.005c.302 0 .302 0 .428.098a.435.435 0 0 1 .134.355c-.012.123-.08.199-.162.283-.106.08-.214.077-.341.077a406.023 406.023 0 0 1-.26 0h-.534a353.168 353.168 0 0 0-1.138 0 331.068 331.068 0 0 0-1.428.002h-.406a81.069 81.069 0 0 1-.523 0h-.247a.442.442 0 0 1-.343-.134c-.095-.102-.113-.197-.11-.335.019-.125.086-.2.179-.282.1-.07.196-.066.315-.065h.214a88.818 88.818 0 0 1 .72.001 82.732 82.732 0 0 0 .796.003h.14l.063.001c.1 0 .145-.002.226-.065.04-.052.04-.052.062-.099Zm-2.245-3.386h.264l.146-.001h.807l.693.001h.713a307.952 307.952 0 0 1 1.91.002h.056a.465.465 0 0 1 .299.097.435.435 0 0 1 .134.355c-.012.123-.08.199-.162.283-.106.081-.214.077-.341.077h-.794a353.168 353.168 0 0 0-1.138 0 275.89 275.89 0 0 0-1.428.002h-.406a81.069 81.069 0 0 1-.714 0h-.056a.442.442 0 0 1-.343-.134c-.095-.102-.113-.197-.11-.335.019-.126.086-.201.18-.282.095-.066.178-.067.29-.065Zm0-3.545h2.623a307.952 307.952 0 0 1 1.91.002h.056a.464.464 0 0 1 .299.097.434.434 0 0 1 .134.355c-.012.123-.08.199-.162.283-.106.081-.214.077-.341.077h-1.12a439.238 439.238 0 0 1-1.516.001 349.306 349.306 0 0 1-1.512.001h-.388a.442.442 0 0 1-.343-.134c-.095-.102-.113-.197-.11-.334.019-.127.086-.202.18-.283.095-.066.178-.067.29-.065Z" fill="#D9D9EA"/><path d="M17.692 36.366h2.398a208.208 208.208 0 0 1 1.6 0h.144c.303-.002.523.009.76.215a.78.78 0 0 1 .2.568.735.735 0 0 1-.24.497c-.183.142-.34.18-.566.18h-.408a378.264 378.264 0 0 1-1.323.002h-.221a338.155 338.155 0 0 0-1.445.003 140.563 140.563 0 0 0-.938.002h-.25a.797.797 0 0 1-.565-.247.863.863 0 0 1-.172-.645.771.771 0 0 1 .325-.462c.221-.132.45-.114.7-.113Zm-.672.538a.477.477 0 0 0-.01.364c.071.1.16.193.279.232l.192.003h.404l.391.001h.244l.675.001h.219a414.894 414.894 0 0 1 1.43.002 183.784 183.784 0 0 1 .93.001 30.624 30.624 0 0 0 .248 0 .441.441 0 0 0 .343-.134c.095-.102.113-.197.11-.335-.018-.119-.086-.199-.172-.279-.1-.065-.195-.058-.31-.058h-.06l-.204-.001-.145-.001-.478-.002h-.082l-.766-.001h-.222l-.714-.003a179.245 179.245 0 0 0-1.145-.003 45.455 45.455 0 0 0-.529-.002h-.251c-.167.002-.281.08-.377.215Zm.672-4.083h2.398a189.278 189.278 0 0 1 1.6 0h.144c.303-.002.523.009.76.216a.78.78 0 0 1 .2.567.735.735 0 0 1-.24.497c-.183.142-.34.18-.566.18h-.408l-.476.002h-1.068a338.155 338.155 0 0 0-1.445.003l-.41.001a71.098 71.098 0 0 1-.722 0l-.056.002a.797.797 0 0 1-.565-.248.863.863 0 0 1-.172-.644.771.771 0 0 1 .325-.463c.221-.132.45-.114.7-.113Zm-.672.538a.477.477 0 0 0-.01.364c.071.1.16.193.279.232l.192.003h.404a508.562 508.562 0 0 0 1.31.002h.219a331.915 331.915 0 0 1 1.43.002 183.784 183.784 0 0 1 .93.001h.248a.441.441 0 0 0 .343-.134c.095-.102.113-.197.11-.334-.018-.12-.086-.2-.172-.28-.1-.065-.195-.058-.31-.058h-.06l-.204-.001-.145-.001-.478-.002h-.082l-.766-.001h-.222l-.714-.003a179.245 179.245 0 0 0-1.145-.003 45.455 45.455 0 0 0-.529-.002h-.251c-.167.002-.281.08-.377.215Z" fill="#030303"/><path d="M17.752 39.913h.16a51.147 51.147 0 0 0 1.094.004h.159l.22.001h.066l.061.001h.053c.056.01.075.027.109.073.015.12.015.12 0 .172-.046.051-.085.082-.154.094a2.873 2.873 0 0 1-.176.002h-.213a110.175 110.175 0 0 1-.886-.002 53.653 53.653 0 0 0-.554-.002h-.214l-.064-.001a.43.43 0 0 0-.339.145c-.077.107-.079.217-.064.344a.5.5 0 0 0 .215.258c.085.028.167.024.256.024h.261l.144.001h.39l.244.001h.894a414.777 414.777 0 0 1 1.43.002 137.906 137.906 0 0 1 .93.001h.248a.453.453 0 0 0 .332-.123c.087-.102.102-.192.1-.324-.018-.121-.078-.197-.174-.271-.114-.064-.24-.053-.368-.052h-.436a35.943 35.943 0 0 1-.566 0h-.075c-.08-.013-.116-.04-.173-.097-.018-.063-.008-.104 0-.172.024-.037.024-.037.065-.064.064-.009.064-.009.143-.01a5.952 5.952 0 0 1 .188-.001 33.603 33.603 0 0 0 .311-.001l.268-.002a18.01 18.01 0 0 1 .307-.002c.254-.003.454.042.65.215a.78.78 0 0 1 .2.564.778.778 0 0 1-.241.504.86.86 0 0 1-.57.178h-.408l-.393.001a201.72 201.72 0 0 0-1.061.001h-.089a281.162 281.162 0 0 0-1.442.002 112.231 112.231 0 0 0-.797 0l-.141.001a20.801 20.801 0 0 1-.25 0 .798.798 0 0 1-.564-.247.86.86 0 0 1-.172-.645c.042-.195.166-.344.323-.462.233-.144.498-.114.763-.111Z" fill="#020203"/><path d="M25.532 39.92c.042 0 .084 0 .127-.002a14.033 14.033 0 0 1 .24-.003.44.44 0 0 1 .328.12c.1.114.123.218.12.366v.501a.5.5 0 0 1-.13.348c-.123.109-.234.124-.392.126h-.055l-.114.002-.173.003c-.332.004-.332.004-.467-.1-.111-.133-.134-.232-.133-.4v-.547a.396.396 0 0 1 .133-.313c.159-.124.32-.1.516-.1Z" fill="#010302"/><path d="M23.593 39.917h.361l.117.001h.055c.126.002.22.023.314.112l.031.039.032.039c.088.119.054.314.055.457l.002.127a12.445 12.445 0 0 1 .004.24.46.46 0 0 1-.12.328c-.126.097-.224.11-.378.112h-.055l-.116.002a17.059 17.059 0 0 0-.287.002l-.053.002a.446.446 0 0 1-.33-.13c-.102-.13-.12-.23-.122-.39l-.001-.055-.001-.114-.003-.172c-.004-.333-.004-.333.1-.468a.513.513 0 0 1 .395-.132Z" fill="#030101"/><path d="M25.532 36.375c.042 0 .084 0 .127-.002a12.473 12.473 0 0 1 .24-.003.44.44 0 0 1 .328.12c.1.114.123.218.12.366v.501a.5.5 0 0 1-.13.348c-.123.109-.234.124-.392.126h-.055l-.114.002-.173.003c-.332.004-.332.004-.467-.1-.111-.133-.134-.231-.133-.4v-.547a.396.396 0 0 1 .133-.313c.159-.124.32-.1.516-.1Z" fill="#010302"/><path d="M23.593 36.372h.178l.183.001h.172c.126.002.22.023.314.112l.031.039.032.039c.088.119.054.314.055.457l.002.127a12.474 12.474 0 0 1 .004.24.46.46 0 0 1-.12.328c-.126.097-.224.111-.378.112h-.055a44.587 44.587 0 0 1-.403.004l-.053.002a.446.446 0 0 1-.33-.13c-.102-.13-.12-.23-.122-.39l-.001-.055-.001-.114-.003-.172c-.004-.333-.004-.333.1-.468a.513.513 0 0 1 .395-.132Z" fill="#030101"/><path d="m25.532 32.83.127-.001c.06-.002.122-.002.183-.002l.057-.002a.44.44 0 0 1 .328.12c.1.114.123.218.12.366v.34a40.447 40.447 0 0 1 0 .161.5.5 0 0 1-.13.348c-.123.109-.234.124-.392.126h-.055l-.114.002-.173.003c-.332.004-.332.004-.467-.1-.111-.132-.134-.231-.133-.4v-.547a.396.396 0 0 1 .133-.313c.159-.124.32-.1.516-.1Z" fill="#010302"/><path d="M23.593 32.827h.178c.061.002.122.001.183.001h.172c.126.002.22.023.314.112l.031.039.032.039c.088.119.054.314.055.457l.002.127a12.474 12.474 0 0 1 .004.24.46.46 0 0 1-.12.328c-.126.098-.224.111-.378.112l-.055.001h-.116a17.059 17.059 0 0 0-.287.003l-.053.002a.446.446 0 0 1-.33-.13c-.102-.13-.12-.23-.122-.39l-.001-.054-.001-.114c0-.058-.002-.116-.003-.173-.004-.333-.004-.333.1-.467a.514.514 0 0 1 .395-.133Z" fill="#030101"/><path d="M25.31 40.248h.145a42.735 42.735 0 0 1 .269 0l.266.002c.032.064.025.13.025.2v.148l.002.151v.141c0 .107 0 .107-.048.155a1.846 1.846 0 0 1-.158.005h-.146l-.151-.001h-.142c-.107-.002-.107-.002-.155-.026l-.001-.32v-.109l-.001-.156v-.05c0-.038 0-.078.002-.116.021-.022.021-.022.093-.024Z" fill="#61E7A0"/><path d="m23.455 40.25.32-.001h.11l.155-.001h.05c.039 0 .078 0 .117.002.022.022.022.022.024.093v.145l-.001.16v.11l-.001.265c-.065.033-.13.025-.201.025a7.242 7.242 0 0 1-.146 0l-.152.002h-.142c-.107 0-.107 0-.154-.048a1.846 1.846 0 0 1-.005-.158v-.047a32.376 32.376 0 0 1 0-.25l.001-.096v-.046c.001-.107.001-.107.025-.155Z" fill="#FD6219"/><path d="M25.31 36.703a15.106 15.106 0 0 1 .145 0h.16l.109.001.266.001c.032.064.025.13.025.2v.148l.002.151v.141c0 .107 0 .107-.048.155a1.806 1.806 0 0 1-.158.005h-.146l-.151-.001h-.142c-.107-.002-.107-.002-.155-.026l-.001-.32v-.109a40.717 40.717 0 0 1 0-.322c.022-.022.022-.022.094-.024Z" fill="#61E7A0"/><path d="m23.455 36.705.32-.001h.11l.155-.001h.05c.039 0 .078 0 .117.002.022.022.022.022.024.093v.145l-.001.16v.11l-.001.265c-.065.033-.13.026-.201.026h-.047a32.473 32.473 0 0 1-.25 0h-.097l-.046.001c-.107 0-.107 0-.154-.048a1.848 1.848 0 0 1-.005-.158v-.146a19.127 19.127 0 0 0 .001-.247v-.046c.001-.107.001-.107.025-.155Z" fill="#FD6219"/><path d="M25.31 33.158h.305l.109.001.266.001c.032.064.025.13.025.2v.148l.002.151v.141c0 .107 0 .107-.048.155a1.806 1.806 0 0 1-.158.005h-.297l-.096-.001h-.046c-.107-.001-.107-.001-.155-.025a170.777 170.777 0 0 1-.002-.586v-.05c0-.038 0-.077.002-.116.021-.022.021-.022.093-.024Z" fill="#61E7A0"/><path d="M23.455 33.16a113.851 113.851 0 0 1 .43-.002h.205c.039 0 .078 0 .117.002.022.022.022.022.024.093v.145l-.001.161v.108l-.001.267c-.065.032-.13.025-.201.025h-.298l-.097.001h-.046c-.107 0-.107 0-.154-.048a1.848 1.848 0 0 1-.005-.158v-.297l.001-.096v-.046c.001-.107.001-.107.025-.155Z" fill="#FD6219"/><path d="M25.13 38.79h.474v.321h-.473v-.322Zm-7.734 0h.473v.321h-.473v-.322Zm7.734-3.546h.474v.322h-.473v-.322Zm-7.734 0h.473v.322h-.473v-.322Z" fill="#9E9EB2"/><path d="M25.13 42.334h.474c.007.243.007.243-.022.298-.068.039-.139.034-.215.032l-.047.001a.31.31 0 0 1-.167-.033c-.048-.088-.025-.202-.022-.298Zm-7.734 0h.473c.008.243.008.243-.022.298-.068.039-.138.034-.214.032l-.047.001a.31.31 0 0 1-.168-.033c-.047-.088-.025-.202-.021-.298Z" fill="#9C9CB0"/><path d="M22.402 34.922c.073.053.104.084.12.173-.012.063-.012.063-.044.114-.08.052-.131.046-.226.035-.048-.03-.06-.053-.082-.105-.007-.076.023-.13.066-.192.059-.04.097-.036.166-.025Z" fill="#010102"/><path d="M20.254 39.928c.043.021.043.021.064.064a.341.341 0 0 1-.021.215.341.341 0 0 1-.215.021c-.043-.021-.043-.021-.064-.064a.342.342 0 0 1 .021-.215.343.343 0 0 1 .215-.021Z" fill="#030304"/></g><defs><clipPath id="Mask group__a"><path fill="#fff" transform="translate(17 12)" d="M0 0h12v13H0z"/></clipPath><clipPath id="Mask group__b"><path fill="#fff" transform="translate(30 28)" d="M0 0h11v11H0z"/></clipPath><clipPath id="Mask group__c"><path fill="#fff" transform="translate(2 28)" d="M0 0h11v11H0z"/></clipPath><clipPath id="Mask group__d"><path fill="#fff" transform="translate(16 32)" d="M0 0h11v11H0z"/></clipPath></defs></svg>