<?xml version="1.0" standalone="no"?>
<!DOCTYPE svg PUBLIC "-//W3C//DTD SVG 20010904//EN"
 "http://www.w3.org/TR/2001/REC-SVG-20010904/DTD/svg10.dtd">
<svg version="1.0" xmlns="http://www.w3.org/2000/svg"
 width="512.000000pt" height="512.000000pt" viewBox="0 0 512.000000 512.000000"
 preserveAspectRatio="xMidYMid meet">

<g transform="translate(0.000000,512.000000) scale(0.100000,-0.100000)"
fill="#000000" stroke="none">
<path d="M0 2560 l0 -2560 2560 0 2560 0 0 2560 0 2560 -2560 0 -2560 0 0
-2560z m3706 1323 c67 -23 154 -110 177 -177 16 -45 17 -147 17 -1146 0 -1254
7 -1154 -89 -1251 -97 -96 3 -89 -1251 -89 -1254 0 -1154 -7 -1251 89 -96 97
-89 -3 -89 1251 0 1254 -7 1154 89 1251 95 94 -6 87 1247 88 1005 1 1105 0
1150 -16z"/>
<path d="M1520 2560 l0 -1040 1040 0 1040 0 0 1040 0 1040 -1040 0 -1040 0 0
-1040z m1483 -242 c308 -416 367 -496 367 -502 0 -3 -364 -6 -810 -6 -445 0
-810 3 -810 6 0 3 71 99 158 212 86 114 175 231 196 259 26 34 43 49 50 43 6
-4 72 -83 146 -174 74 -91 137 -165 140 -165 3 -1 95 116 205 259 110 142 203
259 207 260 4 0 72 -87 151 -192z"/>
</g>
</svg>
